<svg xmlns="http://www.w3.org/2000/svg" width="28.205" height="19.832" viewBox="0 0 28.205 19.832">
  <g id="email" transform="translate(0 -76)">
    <g id="Group_74" data-name="Group 74" transform="translate(19.403 77.417)">
      <g id="Group_73" data-name="Group 73">
        <path id="Path_241" data-name="Path 241" d="M360.765,101.721l-8.554,8.5,8.554,8.5a2.45,2.45,0,0,0,.248-1.062V102.783A2.45,2.45,0,0,0,360.765,101.721Z" transform="translate(-352.211 -101.721)" fill="#979797"/>
      </g>
    </g>
    <g id="Group_76" data-name="Group 76" transform="translate(1.417 76)">
      <g id="Group_75" data-name="Group 75">
        <path id="Path_242" data-name="Path 242" d="M50.03,76H26.783a2.45,2.45,0,0,0-1.062.248L36.654,87.126a2.481,2.481,0,0,0,3.505,0L51.092,76.248A2.45,2.45,0,0,0,50.03,76Z" transform="translate(-25.721 -76)" fill="#979797"/>
      </g>
    </g>
    <g id="Group_78" data-name="Group 78" transform="translate(0 77.417)">
      <g id="Group_77" data-name="Group 77">
        <path id="Path_243" data-name="Path 243" d="M.248,101.721A2.45,2.45,0,0,0,0,102.783v14.874a2.45,2.45,0,0,0,.248,1.062l8.554-8.5Z" transform="translate(0 -101.721)" fill="#979797"/>
      </g>
    </g>
    <g id="Group_80" data-name="Group 80" transform="translate(1.417 87.084)">
      <g id="Group_79" data-name="Group 79">
        <path id="Path_244" data-name="Path 244" d="M42.538,277.211l-1.21,1.21a4.136,4.136,0,0,1-5.842,0l-1.21-1.21-8.554,8.5a2.45,2.45,0,0,0,1.062.248H50.03a2.45,2.45,0,0,0,1.062-.248Z" transform="translate(-25.721 -277.211)" fill="#979797"/>
      </g>
    </g>
  </g>
</svg>
