<svg xmlns="http://www.w3.org/2000/svg" width="44.718" height="35.587" viewBox="0 0 44.718 35.587">
  <g id="home" transform="translate(0.001 -46.994)">
    <g id="Group_25" data-name="Group 25" transform="translate(-0.001 46.994)">
      <path id="Path_181" data-name="Path 181" d="M81.675,120.939,65.726,134.087a.377.377,0,0,1-.014.083.379.379,0,0,0-.014.083v13.314a1.8,1.8,0,0,0,1.775,1.776H78.124V138.691h7.1v10.652H95.876a1.8,1.8,0,0,0,1.776-1.776V134.253a.39.39,0,0,0-.028-.166Z" transform="translate(-59.315 -113.755)" fill="#979797"/>
      <path id="Path_182" data-name="Path 182" d="M44.409,64.33l-6.074-5.048V47.965a.855.855,0,0,0-.888-.887H32.122a.854.854,0,0,0-.888.887v5.409l-6.768-5.659a3.441,3.441,0,0,0-4.216,0L.308,64.33a.806.806,0,0,0-.305.6.9.9,0,0,0,.194.652l1.72,2.053a.946.946,0,0,0,.583.305,1.031,1.031,0,0,0,.666-.194l19.194-16,19.194,16a.855.855,0,0,0,.583.193h.083a.947.947,0,0,0,.583-.3l1.72-2.052a.9.9,0,0,0,.193-.652A.808.808,0,0,0,44.409,64.33Z" transform="translate(0.001 -46.994)" fill="#979797"/>
    </g>
  </g>
</svg>
