<svg xmlns="http://www.w3.org/2000/svg" width="20.176" height="24.211" viewBox="0 0 20.176 24.211">
  <g id="kyc" transform="translate(-40)">
    <g id="Group_130" data-name="Group 130" transform="translate(44.842 17.351)">
      <g id="Group_129" data-name="Group 129">
        <path id="Path_310" data-name="Path 310" d="M137.211,344H136.4a.4.4,0,0,0,0,.807h.807a.4.4,0,1,0,0-.807Z" transform="translate(-136 -344)" fill="#979797"/>
      </g>
    </g>
    <g id="Group_132" data-name="Group 132" transform="translate(47.263 17.351)">
      <g id="Group_131" data-name="Group 131" transform="translate(0)">
        <path id="Path_311" data-name="Path 311" d="M194.088,344H184.4a.4.4,0,1,0,0,.807h9.684a.4.4,0,1,0,0-.807Z" transform="translate(-184 -344)" fill="#979797"/>
      </g>
    </g>
    <g id="Group_134" data-name="Group 134" transform="translate(44.842 14.93)">
      <g id="Group_133" data-name="Group 133">
        <path id="Path_312" data-name="Path 312" d="M137.211,296H136.4a.4.4,0,1,0,0,.807h.807a.4.4,0,1,0,0-.807Z" transform="translate(-136 -296)" fill="#979797"/>
      </g>
    </g>
    <g id="Group_136" data-name="Group 136" transform="translate(47.263 14.93)">
      <g id="Group_135" data-name="Group 135" transform="translate(0)">
        <path id="Path_313" data-name="Path 313" d="M194.088,296H184.4a.4.4,0,1,0,0,.807h9.684a.4.4,0,1,0,0-.807Z" transform="translate(-184 -296)" fill="#979797"/>
      </g>
    </g>
    <g id="Group_138" data-name="Group 138" transform="translate(44.842 12.509)">
      <g id="Group_137" data-name="Group 137">
        <path id="Path_314" data-name="Path 314" d="M137.211,248H136.4a.4.4,0,0,0,0,.807h.807a.4.4,0,1,0,0-.807Z" transform="translate(-136 -248)" fill="#979797"/>
      </g>
    </g>
    <g id="Group_140" data-name="Group 140" transform="translate(47.263 12.509)">
      <g id="Group_139" data-name="Group 139" transform="translate(0)">
        <path id="Path_315" data-name="Path 315" d="M194.088,248H184.4a.4.4,0,1,0,0,.807h9.684a.4.4,0,1,0,0-.807Z" transform="translate(-184 -248)" fill="#979797"/>
      </g>
    </g>
    <g id="Group_142" data-name="Group 142" transform="translate(44.842 10.088)">
      <g id="Group_141" data-name="Group 141">
        <path id="Path_316" data-name="Path 316" d="M137.211,200H136.4a.4.4,0,0,0,0,.807h.807a.4.4,0,1,0,0-.807Z" transform="translate(-136 -200)" fill="#979797"/>
      </g>
    </g>
    <g id="Group_144" data-name="Group 144" transform="translate(47.263 10.088)">
      <g id="Group_143" data-name="Group 143" transform="translate(0)">
        <path id="Path_317" data-name="Path 317" d="M194.088,200H184.4a.4.4,0,1,0,0,.807h9.684a.4.4,0,1,0,0-.807Z" transform="translate(-184 -200)" fill="#979797"/>
      </g>
    </g>
    <g id="Group_146" data-name="Group 146" transform="translate(44.842 7.667)">
      <g id="Group_145" data-name="Group 145">
        <path id="Path_318" data-name="Path 318" d="M137.211,152H136.4a.4.4,0,0,0,0,.807h.807a.4.4,0,1,0,0-.807Z" transform="translate(-136 -152)" fill="#979797"/>
      </g>
    </g>
    <g id="Group_148" data-name="Group 148" transform="translate(47.263 7.667)">
      <g id="Group_147" data-name="Group 147" transform="translate(0)">
        <path id="Path_319" data-name="Path 319" d="M194.088,152H184.4a.4.4,0,1,0,0,.807h9.684a.4.4,0,1,0,0-.807Z" transform="translate(-184 -152)" fill="#979797"/>
      </g>
    </g>
    <g id="Group_150" data-name="Group 150" transform="translate(40)">
      <g id="Group_149" data-name="Group 149">
        <path id="Path_320" data-name="Path 320" d="M60.171,6.027a.381.381,0,0,0-.021-.1c0-.013-.008-.025-.013-.038a.4.4,0,0,0-.081-.118L54.407.118a.4.4,0,0,0-.118-.081c-.013-.006-.025-.009-.038-.013a.4.4,0,0,0-.1-.021c-.007,0-.015,0-.023,0h-11.3a.4.4,0,0,0-.4.4V1.614H40.4a.4.4,0,0,0-.4.4v21.79a.4.4,0,0,0,.4.4H57.351a.4.4,0,0,0,.4-.4V21.79h2.018a.4.4,0,0,0,.4-.4V6.053C60.176,6.044,60.171,6.036,60.171,6.027Zm-5.644-4.65L58.8,5.649H54.527ZM56.948,23.4H40.807V2.421h1.614V21.386a.4.4,0,0,0,.4.4H56.948Zm2.421-2.421H43.228V.807H53.72V6.053a.4.4,0,0,0,.4.4h5.246Z" transform="translate(-40)" fill="#979797"/>
      </g>
    </g>
    <g id="Group_152" data-name="Group 152" transform="translate(44.842 3.632)">
      <g id="Group_151" data-name="Group 151">
        <path id="Path_321" data-name="Path 321" d="M138.825,72H136.4a.4.4,0,0,0-.4.4v2.421a.4.4,0,0,0,.4.4h2.421a.4.4,0,0,0,.4-.4V72.4A.4.4,0,0,0,138.825,72Zm-.4,2.421h-1.614V72.807h1.614Z" transform="translate(-136 -72)" fill="#979797"/>
      </g>
    </g>
  </g>
</svg>
