<svg xmlns="http://www.w3.org/2000/svg" width="21.788" height="21.788" viewBox="0 0 21.788 21.788">
  <path id="location" d="M20.942,10.043h-.933a9.2,9.2,0,0,0-8.262-8.262V.847a.851.851,0,0,0-1.7,0v.933a9.2,9.2,0,0,0-8.262,8.262H.847a.851.851,0,0,0,0,1.7h.933a9.154,9.154,0,0,0,8.262,8.262v.933a.851.851,0,0,0,1.7,0v-.933a9.154,9.154,0,0,0,8.262-8.262h.933a.851.851,0,0,0,0-1.7Zm-10.047,8.3a7.459,7.459,0,0,1-7.45-7.45c.409-9.884,14.493-9.881,14.9,0A7.459,7.459,0,0,1,10.895,18.345Zm0-4.9a2.554,2.554,0,1,1,2.554-2.554A2.557,2.557,0,0,1,10.895,13.449Zm0-3.406a.851.851,0,1,0,.851.851A.852.852,0,0,0,10.895,10.043Z" transform="translate(-0.001 0)" fill="#5cb96c"/>
</svg>
