<svg id="man" xmlns="http://www.w3.org/2000/svg" width="64.76" height="64.76" viewBox="0 0 64.76 64.76">
  <g id="Group_154" data-name="Group 154" transform="translate(0)">
    <g id="Group_153" data-name="Group 153">
      <path id="Path_322" data-name="Path 322" d="M64.76,32.38a32.231,32.231,0,0,1-6.237,19.107c-5.89,8.047-15.407,5-26.143,5s-20.253,3.048-26.143-5A32.38,32.38,0,1,1,64.76,32.38Z" transform="translate(0)" fill="#ef9b14"/>
    </g>
  </g>
  <path id="Path_323" data-name="Path 323" d="M75.453,120.5c10.736,0,20.253,3.048,26.143-5a32.231,32.231,0,0,0,6.237-19.107c0-.19,0-.378-.007-.567L85.282,73.28,62.929,91.847l4.577,4.607c.542,2,2.738,7.423,2.738,7.423L49.31,115.5h0C55.2,123.545,64.717,120.5,75.453,120.5Z" transform="translate(-43.073 -64.011)" fill="#db8200"/>
  <g id="Group_155" data-name="Group 155" transform="translate(6.237 3.731)">
    <path id="Path_324" data-name="Path 324" d="M172.246,300.33h21.187v5.524H172.246Z" transform="translate(-156.697 -266.074)" fill="#584b66"/>
    <path id="Path_325" data-name="Path 325" d="M256,300.33h10.593v5.524H256Z" transform="translate(-229.857 -266.074)" fill="#4a3e56"/>
    <path id="Path_326" data-name="Path 326" d="M199.97,260.488h14.174v15.031H199.97Z" transform="translate(-180.914 -231.272)" fill="#ffbb7d"/>
    <path id="Path_327" data-name="Path 327" d="M256,260.491h7.087v15.031H256Z" transform="translate(-229.857 -231.274)" fill="#efa36a"/>
    <path id="Path_328" data-name="Path 328" d="M134.563,332.292h30.72v14.456h-30.72Z" transform="translate(-123.78 -293.994)" fill="#ffd4a6"/>
    <path id="Path_329" data-name="Path 329" d="M256,332.292h15.36v14.456H256Z" transform="translate(-229.857 -293.994)" fill="#ffbb7d"/>
    <path id="Path_330" data-name="Path 330" d="M101.6,341.747a32.382,32.382,0,0,1-52.286,0,9.765,9.765,0,0,1,9.759-9.457h9.3l7.087,6.793,7.087-6.793h9.3A9.761,9.761,0,0,1,101.6,341.747Z" transform="translate(-49.31 -293.992)" fill="#7b7284"/>
    <path id="Path_331" data-name="Path 331" d="M282.143,341.747A32.334,32.334,0,0,1,256,355.02V339.083l5.541-5.312,1.546-1.481h9.3A9.761,9.761,0,0,1,282.143,341.747Z" transform="translate(-229.857 -293.992)" fill="#635a6d"/>
    <path id="Path_332" data-name="Path 332" d="M171.116,79.317c-.5-7.594-6.643-10.4-11.841-10.4s-11.341,2.807-11.841,10.4c-1.344.26-2.3,2.023-2.149,3.449l.23,3.244a2.683,2.683,0,0,0,2.924,2.427l.25-.027c2.97,7.976,7.629,8.808,10.586,9.275,2.957-.467,7.615-1.3,10.586-9.275l.25.027a2.683,2.683,0,0,0,2.924-2.427l.23-3.244c.15-1.425-.8-3.189-2.149-3.449Z" transform="translate(-133.132 -63.931)" fill="#ffd4a6"/>
    <path id="Path_333" data-name="Path 333" d="M269.991,82.766l-.23,3.244a2.683,2.683,0,0,1-2.924,2.427l-.25-.027a16.982,16.982,0,0,1-3.5,5.941A11.366,11.366,0,0,1,256,97.685V68.916c5.2,0,11.341,2.807,11.841,10.4,1.344.26,2.3,2.023,2.149,3.449Z" transform="translate(-229.858 -63.931)" fill="#ffbb7d"/>
    <path id="Path_334" data-name="Path 334" d="M185.4,198.156a3.871,3.871,0,0,0-5.015,0,9.472,9.472,0,0,1-5.752,2.248l-2.326.094.156.938a10.573,10.573,0,0,0,10.43,8.839,11.309,11.309,0,0,0,10.529-9.436l.057-.34-2.326-.094A9.472,9.472,0,0,1,185.4,198.156Z" transform="translate(-156.748 -176.018)" fill="#efebdc"/>
    <path id="Path_335" data-name="Path 335" d="M266.585,200.495l-.056.34A11.307,11.307,0,0,1,256,210.27V197.23a3.862,3.862,0,0,1,2.508.922,9.46,9.46,0,0,0,5.751,2.248Z" transform="translate(-229.857 -176.015)" fill="#d6cfbd"/>
    <path id="Path_336" data-name="Path 336" d="M146.262,300.33l10.594,10.836-5.3,5.692L142.5,304.373Z" transform="translate(-130.713 -266.074)" fill="#9d97a5"/>
    <path id="Path_337" data-name="Path 337" d="M266.594,300.33,256,311.166l5.3,5.692,9.059-12.485Z" transform="translate(-229.857 -266.074)" fill="#7f7887"/>
    <path id="Path_338" data-name="Path 338" d="M160.412,29.5s-6.849,6.676-5.43,13.263l.989,6.563h2.719l1.3-4.84a3.219,3.219,0,0,1,3.954-2.286q.248.069.493.156l.475.169a7.679,7.679,0,0,0,5.361-.114,7.567,7.567,0,0,1,1.057-.325,3.231,3.231,0,0,1,3.837,2.315l1.323,4.924h2.719l.986-6.833C180.406,36.636,175.7,29.5,160.412,29.5Z" transform="translate(-141.447 -29.5)" fill="#494949"/>
    <path id="Path_339" data-name="Path 339" d="M268.605,46.835l-.985,6.833H264.9l-1.323-4.924a3.231,3.231,0,0,0-3.838-2.315,7.417,7.417,0,0,0-1.056.325,7.892,7.892,0,0,1-2.684.54V34.47c9.627,1.867,12.779,7.549,12.605,12.365Z" transform="translate(-229.857 -33.841)" fill="#333"/>
  </g>
</svg>
