<svg id="my_product" xmlns="http://www.w3.org/2000/svg" width="43.496" height="28.997" viewBox="0 0 43.496 28.997">
  <g id="Group_10" data-name="Group 10" transform="translate(0 0)">
    <path id="Path_64" data-name="Path 64" d="M36.247,110.706a3.62,3.62,0,0,0,3.607-3.625l.018-18.123a3.624,3.624,0,0,0-3.625-3.625h-29a3.612,3.612,0,0,0-3.625,3.625v18.123a3.624,3.624,0,0,0,3.625,3.625H0v3.625H43.5v-3.625Z" transform="translate(0 -85.333)" fill="#979797"/>
    <path id="Path_174" data-name="Path 174" d="M8.291,5.858H34.117" transform="translate(0.209)" fill="none" stroke="#fff" stroke-width="1"/>
    <path id="Path_175" data-name="Path 175" d="M8.291,5.858H34.117" transform="translate(0.209 6)" fill="none" stroke="#fff" stroke-width="1"/>
    <path id="Path_177" data-name="Path 177" d="M8.291,5.858H34.117" transform="translate(0.209 9)" fill="none" stroke="#fff" stroke-width="1"/>
    <path id="Path_178" data-name="Path 178" d="M8.291,5.858H34.117" transform="translate(0.209 12)" fill="none" stroke="#fff" stroke-width="1"/>
    <path id="Path_176" data-name="Path 176" d="M8.291,5.858H34.117" transform="translate(0.209 3)" fill="none" stroke="#fff" stroke-width="1"/>
  </g>
</svg>
