<svg xmlns="http://www.w3.org/2000/svg" width="21.112" height="18.115" viewBox="0 0 21.112 18.115">
  <g id="password_obsure" transform="translate(0 -33.926)">
    <g id="Group_126" data-name="Group 126" transform="translate(0 33.926)">
      <path id="Path_299" data-name="Path 299" d="M20.969,42.54a20.019,20.019,0,0,0-4.56-4.342l2.975-2.975a.754.754,0,1,0-1.048-1.085l-.019.019L15.067,37.4a9.751,9.751,0,0,0-4.51-1.206C4.826,36.2.333,42.281.144,42.54a.754.754,0,0,0,0,.887A20.019,20.019,0,0,0,4.7,47.769L1.729,50.745a.754.754,0,0,0,1.048,1.085l.019-.019,3.251-3.248a9.751,9.751,0,0,0,4.51,1.206c5.73,0,10.224-6.083,10.412-6.343A.754.754,0,0,0,20.969,42.54ZM5.8,46.675a18.774,18.774,0,0,1-4.086-3.692c1.11-1.344,4.71-5.278,8.842-5.278a7.981,7.981,0,0,1,3.385.829l-1.309,1.309a3.764,3.764,0,0,0-5.218,5.218Zm6.791-4.661a2.225,2.225,0,0,1,.226.969,2.262,2.262,0,0,1-2.262,2.262,2.225,2.225,0,0,1-.969-.226ZM8.521,43.953a2.225,2.225,0,0,1-.226-.969,2.262,2.262,0,0,1,2.262-2.262,2.225,2.225,0,0,1,.969.226Zm2.036,4.309a7.982,7.982,0,0,1-3.385-.829l1.309-1.309A3.764,3.764,0,0,0,13.7,40.906l1.614-1.614A18.776,18.776,0,0,1,19.4,42.984C18.288,44.328,14.688,48.262,10.556,48.262Z" transform="translate(0 -33.926)" fill="#5cb96c"/>
    </g>
  </g>
</svg>
