<svg id="password" xmlns="http://www.w3.org/2000/svg" width="17.088" height="23.496" viewBox="0 0 17.088 23.496">
  <g id="Group_12" data-name="Group 12" transform="translate(0)">
    <g id="Group_11" data-name="Group 11">
      <path id="Path_65" data-name="Path 65" d="M322.437,4.873A2.437,2.437,0,1,0,320,2.437,2.436,2.436,0,0,0,322.437,4.873Z" transform="translate(-307.785)" fill="#979797"/>
      <path id="Path_66" data-name="Path 66" d="M66.437,128a2.437,2.437,0,1,0,2.437,2.437A2.436,2.436,0,0,0,66.437,128Z" transform="translate(-64 -121.792)" fill="#979797"/>
      <path id="Path_67" data-name="Path 67" d="M66.437,0a2.437,2.437,0,1,0,2.437,2.437A2.436,2.436,0,0,0,66.437,0Z" transform="translate(-64)" fill="#979797"/>
      <path id="Path_68" data-name="Path 68" d="M66.437,256a2.437,2.437,0,1,0,2.437,2.437A2.436,2.436,0,0,0,66.437,256Z" transform="translate(-64 -243.585)" fill="#979797"/>
      <path id="Path_69" data-name="Path 69" d="M194.437,384a2.437,2.437,0,1,0,2.437,2.437A2.436,2.436,0,0,0,194.437,384Z" transform="translate(-185.893 -365.377)" fill="#979797"/>
      <path id="Path_70" data-name="Path 70" d="M322.437,128a2.437,2.437,0,1,0,2.437,2.437A2.436,2.436,0,0,0,322.437,128Z" transform="translate(-307.785 -121.792)" fill="#979797"/>
      <path id="Path_71" data-name="Path 71" d="M194.437,256a2.437,2.437,0,1,0,2.437,2.437A2.436,2.436,0,0,0,194.437,256Z" transform="translate(-185.893 -243.585)" fill="#979797"/>
      <path id="Path_72" data-name="Path 72" d="M322.437,256a2.437,2.437,0,1,0,2.437,2.437A2.436,2.436,0,0,0,322.437,256Z" transform="translate(-307.785 -243.585)" fill="#979797"/>
      <path id="Path_73" data-name="Path 73" d="M194.437,128a2.437,2.437,0,1,0,2.437,2.437A2.436,2.436,0,0,0,194.437,128Z" transform="translate(-185.893 -121.792)" fill="#979797"/>
      <path id="Path_74" data-name="Path 74" d="M194.437,0a2.437,2.437,0,1,0,2.437,2.437A2.436,2.436,0,0,0,194.437,0Z" transform="translate(-185.893)" fill="#979797"/>
    </g>
  </g>
</svg>
