<svg xmlns="http://www.w3.org/2000/svg" width="105.537" height="105.537" viewBox="0 0 105.537 105.537">
  <g id="rectangle_corner" transform="translate(15218.769 -2202.231)">
    <path id="Path_354" data-name="Path 354" d="M3.092,18.758a3.092,3.092,0,0,0,3.092-3.092V6.184h9.482a3.092,3.092,0,0,0,0-6.184H3.092A3.092,3.092,0,0,0,0,3.092V15.666A3.092,3.092,0,0,0,3.092,18.758Zm0,0" transform="translate(-15218.769 2202.231)" fill="#5cb96c"/>
    <path id="Path_355" data-name="Path 355" d="M436.666,0H424.092a3.092,3.092,0,1,0,0,6.184h9.482v9.482a3.092,3.092,0,1,0,6.184,0V3.092A3.092,3.092,0,0,0,436.666,0Zm0,0" transform="translate(-15552.989 2202.231)" fill="#5cb96c"/>
    <path id="Path_356" data-name="Path 356" d="M3.092,439.758H15.666a3.092,3.092,0,1,0,0-6.184H6.184v-9.482a3.092,3.092,0,1,0-6.184,0v12.574A3.092,3.092,0,0,0,3.092,439.758Zm0,0" transform="translate(-15218.769 1868.011)" fill="#5cb96c"/>
    <path id="Path_357" data-name="Path 357" d="M436.666,421a3.092,3.092,0,0,0-3.092,3.092v9.482h-9.482a3.092,3.092,0,1,0,0,6.184h12.574a3.092,3.092,0,0,0,3.092-3.092V424.092A3.092,3.092,0,0,0,436.666,421Zm0,0" transform="translate(-15552.989 1868.011)" fill="#5cb96c"/>
  </g>
</svg>
