<svg xmlns="http://www.w3.org/2000/svg" width="16.081" height="20.297" viewBox="0 0 16.081 20.297">
  <g id="upload" transform="translate(-0.5)">
    <path id="Path_302" data-name="Path 302" d="M11.438.157A.491.491,0,0,0,11.085,0H3.167A2.678,2.678,0,0,0,.5,2.662V17.635A2.678,2.678,0,0,0,3.167,20.3H13.914a2.678,2.678,0,0,0,2.667-2.662V5.746a.528.528,0,0,0-.142-.343Zm.142,1.574,3.349,3.515H12.752A1.168,1.168,0,0,1,11.58,4.079Zm2.334,17.586H3.167a1.7,1.7,0,0,1-1.687-1.682V2.662A1.7,1.7,0,0,1,3.167.981H10.6v3.1a2.145,2.145,0,0,0,2.152,2.147H15.6V17.635A1.7,1.7,0,0,1,13.914,19.317Zm0,0" transform="translate(0 0)" fill="#5cb96c"/>
    <path id="Path_303" data-name="Path 303" d="M97.732,401.934h-8.07a.49.49,0,1,0,0,.981h8.075a.49.49,0,1,0,0-.981Zm0,0" transform="translate(-85.157 -386)" fill="#5cb96c"/>
    <path id="Path_304" data-name="Path 304" d="M119.239,174.2l2.02-2.172v5.354a.49.49,0,0,0,.981,0v-5.354l2.02,2.172a.489.489,0,0,0,.716-.667l-2.873-3.084a.487.487,0,0,0-.716,0l-2.873,3.084a.489.489,0,0,0,.024.691A.5.5,0,0,0,119.239,174.2Zm0,0" transform="translate(-113.208 -163.546)" fill="#5cb96c"/>
  </g>
</svg>
