<svg xmlns="http://www.w3.org/2000/svg" width="22.701" height="22.701" viewBox="0 0 22.701 22.701">
  <g id="user_2_1_" data-name="user (2) (1)" transform="translate(0.5 0.5)">
    <path id="Path_5617" data-name="Path 5617" d="M10.1-.5H11.6a6.614,6.614,0,0,1,3.857,11.284,4.8,4.8,0,0,1-.842.665,11.4,11.4,0,0,1,7.338,8.269q.155.758.244,1.507V22.2H20.383a9.479,9.479,0,0,0-4.744-8.269,9.68,9.68,0,0,0-8.291-.621,9.567,9.567,0,0,0-5.875,7.072A7.929,7.929,0,0,0,1.318,22.2H-.5v-.975A11.482,11.482,0,0,1,5.4,12.2q.827-.413,1.685-.754A6.524,6.524,0,0,1,4.311,5.308,6.6,6.6,0,0,1,8.589-.123,9.371,9.371,0,0,1,10.1-.5Zm.133,1.818A4.855,4.855,0,0,1,15,3.712a4.912,4.912,0,0,1,0,4.7,4.764,4.764,0,1,1-6.5-6.5A5.729,5.729,0,0,1,10.23,1.318Z" fill="#078f10" fill-rule="evenodd" opacity="0.973"/>
  </g>
</svg>
