<svg xmlns="http://www.w3.org/2000/svg" width="46.102" height="59.934" viewBox="0 0 46.102 59.934">
  <path id="Icon_ionic-ios-lock" data-name="Icon ionic-ios-lock" d="M47.089,24.121H43.632V17.393a13.831,13.831,0,1,0-27.661-.187v6.915H12.513A5.78,5.78,0,0,0,6.75,29.884V57.545a5.78,5.78,0,0,0,5.763,5.763H47.089a5.78,5.78,0,0,0,5.763-5.763V29.884A5.78,5.78,0,0,0,47.089,24.121ZM31.818,42.1v9.912A2.066,2.066,0,0,1,29.9,54.088a2.019,2.019,0,0,1-2.118-2.017V42.1a4.61,4.61,0,1,1,4.034,0Zm7.78-17.98H20V17.206a9.8,9.8,0,0,1,19.593,0Z" transform="translate(-6.75 -3.374)"/>
</svg>
