<svg xmlns="http://www.w3.org/2000/svg" width="15.766" height="15.766" viewBox="0 0 15.766 15.766">
  <g id="phone-call_6_1_" data-name="phone-call (6) (1)" transform="translate(0.5 0.5)">
    <path id="Path_5650" data-name="Path 5650" d="M2.271-.5h.647a2.262,2.262,0,0,1,.77.385Q4.93,1.1,6.1,2.364a1.529,1.529,0,0,1-.293,1.955,6.656,6.656,0,0,1-.8.4A1.459,1.459,0,0,0,4.5,6.613a7.072,7.072,0,0,0,3.618,3.618,1.544,1.544,0,0,0,1.955-.57,1.526,1.526,0,0,1,1.8-1.216,1.577,1.577,0,0,1,.739.37q1.21,1.194,2.386,2.417a1.98,1.98,0,0,1,.262.708v.339a1.833,1.833,0,0,1-.385.893l-1.647,1.647a2.491,2.491,0,0,1-1.078.446h-.924a9.128,9.128,0,0,1-2.556-.847A19.818,19.818,0,0,1,3.457,10.4,19.51,19.51,0,0,1,.316,6,8.8,8.8,0,0,1-.5,3.349V2.7A2.454,2.454,0,0,1-.054,1.5L1.625-.177A2.386,2.386,0,0,1,2.271-.5Z" fill-rule="evenodd" opacity="0.989"/>
  </g>
</svg>
