<svg xmlns="http://www.w3.org/2000/svg" width="21" height="12.386" viewBox="0 0 21 12.386">
  <g id="video-camera_1_" data-name="video-camera (1)" transform="translate(0.5 -104.5)">
    <g id="Group_1912" data-name="Group 1912" transform="translate(-0.5 104.5)">
      <path id="Path_5651" data-name="Path 5651" d="M-.5,115v-8.613a2.347,2.347,0,0,1,2.01-1.866q5.065-.041,10.131,0a2.253,2.253,0,0,1,2.03,1.948q.041,4.225,0,8.449a2.319,2.319,0,0,1-2.03,1.948q-5.065.041-10.131,0A2.347,2.347,0,0,1-.5,115Z" transform="translate(0.5 -104.5)" fill-rule="evenodd" opacity="0.995"/>
    </g>
    <g id="Group_1913" data-name="Group 1913" transform="translate(14.799 105.751)">
      <path id="Path_5652" data-name="Path 5652" d="M378.2,136.048V143.8a1.43,1.43,0,0,1-2.174.841l-3.486-2.01q-.082-2.693,0-5.393,1.905-1.136,3.855-2.194A1.451,1.451,0,0,1,378.2,136.048Z" transform="translate(-372.503 -135.002)" fill-rule="evenodd" opacity="0.99"/>
    </g>
  </g>
</svg>
