<svg id="Icon_ionic-ios-camera" data-name="Icon ionic-ios-camera" xmlns="http://www.w3.org/2000/svg" width="22.244" height="16.683" viewBox="0 0 22.244 16.683">
  <path id="Path_5624" data-name="Path 5624" d="M20.619,18.624a3.331,3.331,0,1,1-3.331-3.331A3.331,3.331,0,0,1,20.619,18.624Z" transform="translate(-6.166 -9.182)" fill="#007f00"/>
  <path id="Path_5625" data-name="Path 5625" d="M24.977,10.655H21.82a.94.94,0,0,1-.7-.313C19.48,8.5,18.86,7.875,18.188,7.875H13.235c-.678,0-1.344.626-2.995,2.473a.922.922,0,0,1-.689.307H9.314v-.463a.465.465,0,0,0-.463-.463H7.344a.465.465,0,0,0-.463.463v.463H6.446A1.878,1.878,0,0,0,4.5,12.434v10.2a2.005,2.005,0,0,0,1.941,1.929H24.977a1.857,1.857,0,0,0,1.767-1.929v-10.2A1.727,1.727,0,0,0,24.977,10.655ZM15.854,22.264a4.952,4.952,0,1,1,4.715-4.715A4.957,4.957,0,0,1,15.854,22.264Zm5.329-8.249a.753.753,0,1,1,.753-.753A.752.752,0,0,1,21.183,14.015Z" transform="translate(-4.5 -7.875)" fill="#007f00"/>
</svg>
