<svg xmlns="http://www.w3.org/2000/svg" width="17.043" height="17.043" viewBox="0 0 17.043 17.043">
  <g id="link" transform="translate(-5.635 -5.635)">
    <path id="Path_5606" data-name="Path 5606" d="M20.264,14.157l1.463,1.462L24.651,12.7A4.135,4.135,0,0,0,18.8,6.847L15.879,9.77l1.462,1.463,2.924-2.925a2.068,2.068,0,0,1,2.925,2.925Z" transform="translate(-3.184 0)"/>
    <path id="Path_5607" data-name="Path 5607" d="M14.157,20.266l1.462,1.462L12.7,24.651A4.135,4.135,0,0,1,6.847,18.8L9.77,15.879l1.463,1.462L8.309,20.266a2.068,2.068,0,1,0,2.925,2.924l2.924-2.925Z" transform="translate(0 -3.184)"/>
    <path id="Path_5608" data-name="Path 5608" d="M19.47,15.082a1.035,1.035,0,1,0-1.463-1.463l-4.385,4.387a1.034,1.034,0,1,0,1.462,1.462l4.385-4.385Z" transform="translate(-2.388 -2.387)"/>
  </g>
</svg>
