<svg xmlns="http://www.w3.org/2000/svg" width="18.193" height="18.193" viewBox="0 0 18.193 18.193">
  <path id="Icon_awesome-smile" data-name="Icon awesome-smile" d="M9.1.563a9.1,9.1,0,1,0,9.1,9.1A9.1,9.1,0,0,0,9.1.563Zm2.934,6.162A1.174,1.174,0,1,1,10.857,7.9,1.173,1.173,0,0,1,12.031,6.725Zm-5.869,0A1.174,1.174,0,1,1,4.989,7.9,1.173,1.173,0,0,1,6.162,6.725Zm7.145,6.243a5.479,5.479,0,0,1-8.422,0,.587.587,0,0,1,.9-.752,4.31,4.31,0,0,0,6.617,0A.587.587,0,0,1,13.308,12.968Z" transform="translate(0 -0.563)" fill="#007f00"/>
</svg>
