<svg xmlns="http://www.w3.org/2000/svg" width="8.652" height="17.866" viewBox="0 0 8.652 17.866">
  <g id="right-arrow_2_1_" data-name="right-arrow (2) (1)" transform="translate(-131.53 17.366) rotate(-90)">
    <path id="Path_6297" data-name="Path 6297" d="M17.366,135.611v.489l-.157.244q-1.892,1.839-3.751,3.716a.793.793,0,0,1-1.029-.157.779.779,0,0,1,0-.837l2.495-2.495-14.969-.035A.764.764,0,0,1-.5,136.1v-.489a.764.764,0,0,1,.454-.436l14.969-.035-2.495-2.495a.739.739,0,0,1,.262-1.064.936.936,0,0,1,.768.07q1.86,1.877,3.751,3.716Z" fill-rule="evenodd" opacity="0.986"/>
  </g>
</svg>
