<svg xmlns="http://www.w3.org/2000/svg" width="13.353" height="14.569" viewBox="0 0 13.353 14.569">
  <path id="Icon_ionic-ios-moon" data-name="Icon ionic-ios-moon" d="M17.817,15.506c-.11,0-.22.008-.33.008a6.688,6.688,0,0,1-4.81-2.026A6.911,6.911,0,0,1,10.685,8.6a7,7,0,0,1,.664-2.985,9.887,9.887,0,0,1,.516-.888.15.15,0,0,0-.148-.231,7.337,7.337,0,0,0,1.119,14.566,7.151,7.151,0,0,0,5.5-2.583,6.929,6.929,0,0,0,.622-.827.153.153,0,0,0-.156-.231A6.478,6.478,0,0,1,17.817,15.506Z" transform="translate(-5.625 -4.496)"/>
</svg>
