<svg xmlns="http://www.w3.org/2000/svg" xmlns:xlink="http://www.w3.org/1999/xlink" width="38.886" height="39.142" viewBox="0 0 38.886 39.142">
  <defs>
    <linearGradient id="linear-gradient" x1="0.5" x2="0.5" y2="1" gradientUnits="objectBoundingBox">
      <stop offset="0" stop-color="#007f00"/>
      <stop offset="1" stop-color="#66c117"/>
    </linearGradient>
  </defs>
  <g id="Group_176" data-name="Group 176" transform="translate(-2970.142 -654.274)">
    <g id="Group_174" data-name="Group 174" transform="translate(2970.142 654.274)">
      <g id="Group_130" data-name="Group 130">
        <path id="Path_1184" data-name="Path 1184" d="M17.272-.5h3.342A19.6,19.6,0,0,1,36.9,11.348a21.2,21.2,0,0,1,1.481,5.924v1.823H38.31A19.294,19.294,0,0,0,28.588,3.563,19.816,19.816,0,0,0,12.031,2.272,19.482,19.482,0,0,0-.234,17.2a11.3,11.3,0,0,0-.19,1.9H-.5V17.272A19.6,19.6,0,0,1,11.348.981,21.2,21.2,0,0,1,17.272-.5Z" transform="translate(0.5 0.5)" fill-rule="evenodd" fill="url(#linear-gradient)"/>
      </g>
      <g id="Group_131" data-name="Group 131" transform="translate(0.076 1.542)">
        <path id="Path_1185" data-name="Path 1185" d="M39.234,37.861a19.747,19.747,0,0,1-8.278,14.354h-.076c.013-2.177-1.329-1.748-1.367-3.925-.364-1.276-1.208,2-2.489,1.633-.558-.14-3.866-2.932-4.422-3.071-1.089-.388.465-4.772-.674-5.043-.235-.07.958-.146.712-.228q-.057-1.366-.038-2.734a1.946,1.946,0,0,1,.456-.456c.936.424-.507-3.677.3-3.038.96-1.767-.091,1.522.265-.457.038-.734-.253-1.944-.265-2.679-.015-1.632-.1-1.171-.722-2.679-.562-1.246-.341,1.822-1.626,1.372-.282-.013-.836-2.877-1.111-2.94-.832-1.163,1.054,2.84-.392,2.94-3.633.165-1.175-3.1-2.377.327-.429,1.2.419-1.277.417,0-.1,2.681-2.487-.176-1.177,2.156.066.082-.086,1.559,0,1.5.8-.617-.841,3.84.076,3.419a6.613,6.613,0,0,0,.646.532q.057,1.367.038,2.734c-.268.054,1.963.13,1.724.228-1.1.268-1.405,6.141-2.483,6.48-.875.219-3.334.6-4.18.915-.916.512,5.842,4.325,5.619,5.357-.038,2.1-9.046-4.524-9.033-2.423A19.43,19.43,0,0,1,.5,37.861a11.3,11.3,0,0,1,.19-1.9A19.482,19.482,0,0,1,12.956,21.038,19.816,19.816,0,0,1,29.512,22.33,19.294,19.294,0,0,1,39.234,37.861Z" transform="translate(-0.5 -19.809)" fill-rule="evenodd" fill="url(#linear-gradient)"/>
      </g>
      <g id="Group_137" data-name="Group 137" transform="translate(0 19.595)">
        <path id="Path_1191" data-name="Path 1191" d="M-.5,257.5h.076a19.43,19.43,0,0,0,8.278,14.278v1.595A19.5,19.5,0,0,1-.5,259.019Z" transform="translate(0.5 -257.5)" fill-rule="evenodd" fill="url(#linear-gradient)"/>
      </g>
      <g id="Group_138" data-name="Group 138" transform="translate(30.531 19.595)">
        <path id="Path_1192" data-name="Path 1192" d="M409.778,257.5h.076v1.519a19.5,19.5,0,0,1-8.354,14.354v-1.519A19.748,19.748,0,0,0,409.778,257.5Z" transform="translate(-401.5 -257.5)" fill-rule="evenodd" fill="url(#linear-gradient)"/>
      </g>
      <g id="Group_150" data-name="Group 150" transform="translate(8.354 33.949)">
        <path id="Path_1204" data-name="Path 1204" d="M109.5,446.5q1.266.767,2.582,1.481a18.358,18.358,0,0,0,7.443,1.861v.076a5.141,5.141,0,0,0,.114,1.291.859.859,0,0,0,.19.228h-.911a19.665,19.665,0,0,1-9.418-3.418Z" transform="translate(-109.5 -446.5)" fill-rule="evenodd" fill="url(#linear-gradient)"/>
      </g>
      <g id="Group_151" data-name="Group 151" transform="translate(20.202 33.949)">
        <path id="Path_1205" data-name="Path 1205" d="M275.753,446.5h.076v1.519a19.741,19.741,0,0,1-9.342,3.418H265.5a1.71,1.71,0,0,0,.228-1.139.73.73,0,0,0,.076-.456A19.47,19.47,0,0,0,275.753,446.5Z" transform="translate(-265.5 -446.5)" fill-rule="evenodd" fill="url(#linear-gradient)"/>
      </g>
    </g>
    <g id="Group_153" data-name="Group 153" transform="translate(2983.248 660.647)">
      <path id="Path_1207" data-name="Path 1207" d="M160.1-.5h1.856a4.955,4.955,0,0,1,.736.9,1.265,1.265,0,0,1,.128,1.344,5.79,5.79,0,0,0-.96,1.088,2.238,2.238,0,0,0-.032,1.152,1.063,1.063,0,0,0-.512.064,5.74,5.74,0,0,0-3.136.928,2.963,2.963,0,0,0-1.056,2.976,6.789,6.789,0,0,0-.608,1.408,3.518,3.518,0,0,0-.768-.064,10.706,10.706,0,0,1,.224-5.5,6.173,6.173,0,0,1,1.568-2.3,6.247,6.247,0,0,1,1.088-.672Q159.3.575,159.969.3A.464.464,0,0,0,160.1.14q-.106-.206-.192-.416A1,1,0,0,1,160.1-.5Z" transform="translate(-155.488 0.5)" fill="#45304c" fill-rule="evenodd"/>
    </g>
    <g id="Group_154" data-name="Group 154" transform="translate(2989.525 660.647)">
      <path id="Path_1208" data-name="Path 1208" d="M253.746-.5h.448a7.326,7.326,0,0,1,4.224,1.824,3.109,3.109,0,0,0,.32.416,6.865,6.865,0,0,1,1.472,4.544,19.467,19.467,0,0,1-.32,3.008,2.581,2.581,0,0,0-.768.064,10.087,10.087,0,0,0-.608-1.216,15.114,15.114,0,0,1-.128-1.792,2.931,2.931,0,0,0-2.4-2.08,9.47,9.47,0,0,0-2.368-.288,2.238,2.238,0,0,1,.032-1.152,5.79,5.79,0,0,1,.96-1.088A1.265,1.265,0,0,0,254.482.4,4.955,4.955,0,0,0,253.746-.5Z" transform="translate(-253.557 0.5)" fill="#56415e" fill-rule="evenodd" opacity="0.996"/>
    </g>
    <g id="Group_157" data-name="Group 157" transform="translate(2984.145 665.187)">
      <path id="Path_1211" data-name="Path 1211" d="M174.428,70.444a1.18,1.18,0,0,1,.384.032,2.666,2.666,0,0,0-1.248,1.888l-.064,1.472a5.158,5.158,0,0,0-.576,1.472,3.15,3.15,0,0,0,0,.9q.286,2.076.512,4.16a7.424,7.424,0,0,0,3.1,4.384.272.272,0,0,0,.256,0,6.289,6.289,0,0,0,1.6-1.376,7.072,7.072,0,0,0,.128,1.152,4.892,4.892,0,0,1-2.208,3.2.9.9,0,0,0,.032.832v1.792a4.84,4.84,0,0,1-2.688,0V88.557a1.053,1.053,0,0,0,.064-.832,3.654,3.654,0,0,0,1.216-2.56,3.549,3.549,0,0,1-2.3-.8,8.849,8.849,0,0,1-.928-.864.211.211,0,0,1-.1.128.828.828,0,0,0-.032-.32,6.96,6.96,0,0,1-1.632-4.1.823.823,0,0,1-.448-.064h.448a22.492,22.492,0,0,0-.288-2.368,8.226,8.226,0,0,1-.032-1.024,6.788,6.788,0,0,1,.608-1.408,2.963,2.963,0,0,1,1.056-2.976A5.74,5.74,0,0,1,174.428,70.444Z" transform="translate(-169.5 -70.44)" fill="#fea97b" fill-rule="evenodd"/>
    </g>
    <g id="Group_158" data-name="Group 158" transform="translate(2987.537 665.12)">
      <path id="Path_1212" data-name="Path 1212" d="M224.036,69.461a1.063,1.063,0,0,1,.512-.064,9.47,9.47,0,0,1,2.368.288,2.931,2.931,0,0,1,2.4,2.08,15.117,15.117,0,0,0,.128,1.792,10.09,10.09,0,0,1,.608,1.216q-.178,1.726-.384,3.456A7.186,7.186,0,0,1,228,82.39a6.288,6.288,0,0,1-1.6,1.376.272.272,0,0,1-.256,0,7.424,7.424,0,0,1-3.1-4.384q-.226-2.084-.512-4.16a3.15,3.15,0,0,1,0-.9,5.158,5.158,0,0,1,.576-1.472l.064-1.472a2.666,2.666,0,0,1,1.248-1.888A1.18,1.18,0,0,0,224.036,69.461Z" transform="translate(-222.5 -69.39)" fill="#fec6aa" fill-rule="evenodd"/>
    </g>
    <g id="Group_161" data-name="Group 161" transform="translate(2982.989 670.438)">
      <path id="Path_1215" data-name="Path 1215" d="M151.95,152.482a3.516,3.516,0,0,1,.768.064,8.223,8.223,0,0,0,.032,1.024,22.487,22.487,0,0,1,.288,2.368h-.448a1,1,0,0,1-.416-.32,19.348,19.348,0,0,0-.7-2.048A.887.887,0,0,1,151.95,152.482Z" transform="translate(-151.433 -152.481)" fill="#fb9460" fill-rule="evenodd"/>
    </g>
    <g id="Group_162" data-name="Group 162" transform="translate(2994.705 670.433)">
      <path id="Path_1216" data-name="Path 1216" d="M335.652,152.419a.922.922,0,0,1,.448.8q-.317,1.035-.608,2.08a.9.9,0,0,1-.992.64q.206-1.73.384-3.456A2.58,2.58,0,0,1,335.652,152.419Z" transform="translate(-334.5 -152.413)" fill="#fdaa7b" fill-rule="evenodd"/>
    </g>
    <g id="Group_163" data-name="Group 163" transform="translate(2986.129 678.247)">
      <path id="Path_1217" data-name="Path 1217" d="M202.74,278.724a5.616,5.616,0,0,1-.9-.7,4.781,4.781,0,0,1-1.344-2.5l.128-.9a.211.211,0,0,0,.1-.128,8.851,8.851,0,0,0,.928.864,3.549,3.549,0,0,0,2.3.8A3.654,3.654,0,0,1,202.74,278.724Z" transform="translate(-200.5 -274.5)" fill="#fb9360" fill-rule="evenodd"/>
    </g>
    <g id="Group_164" data-name="Group 164" transform="translate(2990.874 679.215)">
      <path id="Path_1218" data-name="Path 1218" d="M279.175,291.532a4.411,4.411,0,0,1-.352,1.216q-.589,1.37-1.28,2.688a.961.961,0,0,1-.992.192q-.929-.929-1.792-1.92a.9.9,0,0,1-.032-.832,4.892,4.892,0,0,0,2.208-3.2.351.351,0,0,1,.32-.032,7.476,7.476,0,0,1,1.824,1.5A.646.646,0,0,1,279.175,291.532Z" transform="translate(-274.64 -289.619)" fill="#a98bbb" fill-rule="evenodd"/>
    </g>
    <g id="Group_165" data-name="Group 165" transform="translate(2974.725 681.192)">
      <path id="Path_1219" data-name="Path 1219" d="M49.176,320.5q.485,1.356,1.088,2.688a5.654,5.654,0,0,0-2.944.992,3.356,3.356,0,0,0-1.184,2.016c-.032,1.259.266,2.881.277,4.14-2-1.32-5.182-3.067-6.337-5.161.222-.925,2.026-1.962,2.828-2.467A43.742,43.742,0,0,1,49.176,320.5Z" transform="translate(-40.076 -320.5)" fill="#56415e" fill-rule="evenodd" opacity="0.997"/>
    </g>
    <g id="Group_166" data-name="Group 166" transform="translate(2992.713 681.128)">
      <path id="Path_1220" data-name="Path 1220" d="M306.072,319.5q2.368.773,4.736,1.568.816.315,1.6.7c.8.5,2.613,1.8,2.835,2.72-.537.99-1.966,2.97-3.267,2.883-.541-.037-.8-.508-1.031-1.246-.21-.649-.33-1.669-.906-1.989a.588.588,0,0,0-.736.352q-.048,2.272-.032,4.544a16.39,16.39,0,0,1-5.888,2.5q-.032-3.984.064-7.936a.96.96,0,0,0,.992-.192q.691-1.318,1.28-2.688A4.411,4.411,0,0,0,306.072,319.5Z" transform="translate(-303.376 -319.5)" fill="#6c5475" fill-rule="evenodd" opacity="0.997"/>
    </g>
    <g id="Group_167" data-name="Group 167" transform="translate(2984.977 681.768)">
      <path id="Path_1221" data-name="Path 1221" d="M185,329.5a5.618,5.618,0,0,0,.9.7,1.053,1.053,0,0,1-.064.832q-.841.954-1.728,1.888a1,1,0,0,1-.96-.064,6.81,6.81,0,0,1-.64-1.248A2.632,2.632,0,0,1,185,329.5Z" transform="translate(-182.5 -329.5)" fill="#866c92" fill-rule="evenodd"/>
    </g>
    <g id="Group_168" data-name="Group 168" transform="translate(2980.749 679.215)">
      <path id="Path_1222" data-name="Path 1222" d="M121.818,289.676a4.781,4.781,0,0,0,1.344,2.5,2.632,2.632,0,0,0-2.5,2.112,6.81,6.81,0,0,0,.64,1.248,1,1,0,0,0,.96.064q.887-.934,1.728-1.888v3.52q.032,3.281-.064,6.528a14.74,14.74,0,0,1-7.488-2.688q-.016-1.888.032-3.776a3.356,3.356,0,0,1,1.184-2.016,5.654,5.654,0,0,1,2.944-.992q-.6-1.332-1.088-2.688a3.756,3.756,0,0,1,.16-.448,10.215,10.215,0,0,1,1.824-1.5A.351.351,0,0,1,121.818,289.676Z" transform="translate(-116.437 -289.619)" fill="#6c5475" fill-rule="evenodd" opacity="0.997"/>
    </g>
    <g id="Group_169" data-name="Group 169" transform="translate(2990.985 683.304)">
      <path id="Path_1223" data-name="Path 1223" d="M276.384,353.5q.863.991,1.792,1.92-.1,3.952-.064,7.936a12.934,12.934,0,0,1-1.664.192q-.1-3.248-.064-6.528V353.5Z" transform="translate(-276.376 -353.5)" fill="#876d93" fill-rule="evenodd" opacity="0.998"/>
    </g>
    <g id="Group_170" data-name="Group 170" transform="translate(2988.305 685.096)">
      <path id="Path_1224" data-name="Path 1224" d="M234.5,381.5a4.84,4.84,0,0,0,2.688,0v1.728a4.877,4.877,0,0,1-2.688,0Z" transform="translate(-234.5 -381.5)" fill="#4bb1f6" fill-rule="evenodd"/>
    </g>
    <g id="Group_171" data-name="Group 171" transform="translate(2998.606 685.743)">
      <path id="Path_1225" data-name="Path 1225" d="M398.13,394.1v1.056l-.963.5c-.55.5-1.122.457-1.725.878q-.016-2.272.032-4.544a.588.588,0,0,1,.736-.352A3.86,3.86,0,0,1,398.13,394.1Z" transform="translate(-395.437 -391.615)" fill="#56415e" fill-rule="evenodd"/>
    </g>
    <g id="Group_172" data-name="Group 172" transform="translate(2988.241 686.824)">
      <path id="Path_1226" data-name="Path 1226" d="M233.564,408.5a4.878,4.878,0,0,0,2.688,0q-.032,3.281.064,6.528v.064H233.5v-.064Q233.6,411.781,233.564,408.5Z" transform="translate(-233.5 -408.5)" fill="#72c2f8" fill-rule="evenodd" opacity="0.998"/>
    </g>
  </g>
</svg>
