<svg xmlns="http://www.w3.org/2000/svg" width="20.1" height="14.07" viewBox="0 0 20.1 14.07">
  <path id="Icon_awesome-user-friends" data-name="Icon awesome-user-friends" d="M6.03,9.285A3.518,3.518,0,1,0,2.513,5.768,3.516,3.516,0,0,0,6.03,9.285ZM8.442,10.29H8.181a4.856,4.856,0,0,1-4.3,0H3.618A3.619,3.619,0,0,0,0,13.908v.9A1.508,1.508,0,0,0,1.508,16.32h9.045a1.508,1.508,0,0,0,1.508-1.508v-.9A3.619,3.619,0,0,0,8.442,10.29Zm6.633-1.005A3.015,3.015,0,1,0,12.06,6.27,3.016,3.016,0,0,0,15.075,9.285Zm1.508,1.005h-.119a3.96,3.96,0,0,1-2.776,0h-.119a3.488,3.488,0,0,0-1.749.484,4.6,4.6,0,0,1,1.247,3.134v1.206c0,.069-.016.135-.019.2h5.546A1.508,1.508,0,0,0,20.1,13.808a3.516,3.516,0,0,0-3.518-3.518Z" transform="translate(0 -2.25)" fill="#007f00"/>
</svg>
