<svg xmlns="http://www.w3.org/2000/svg" width="19.901" height="13.93" viewBox="0 0 19.901 13.93">
  <path id="Icon_awesome-users" data-name="Icon awesome-users" d="M2.985,8.22A1.99,1.99,0,1,0,1,6.23,1.992,1.992,0,0,0,2.985,8.22Zm13.93,0a1.99,1.99,0,1,0-1.99-1.99A1.992,1.992,0,0,0,16.916,8.22Zm1,1h-1.99a1.984,1.984,0,0,0-1.4.578,4.548,4.548,0,0,1,2.335,3.4h2.052a.994.994,0,0,0,1-1v-1A1.992,1.992,0,0,0,17.911,9.215Zm-7.96,0A3.483,3.483,0,1,0,6.468,5.733,3.481,3.481,0,0,0,9.95,9.215Zm2.388,1H12.08a4.808,4.808,0,0,1-4.26,0H7.562A3.583,3.583,0,0,0,3.98,13.792v.9A1.493,1.493,0,0,0,5.473,16.18h8.955a1.493,1.493,0,0,0,1.493-1.493v-.9A3.583,3.583,0,0,0,12.338,10.21ZM5.383,9.794a1.984,1.984,0,0,0-1.4-.578H1.99A1.992,1.992,0,0,0,0,11.205v1a.994.994,0,0,0,1,1H3.044A4.56,4.56,0,0,1,5.383,9.794Z" transform="translate(0 -2.25)"/>
</svg>
