<svg xmlns="http://www.w3.org/2000/svg" width="27.051" height="17.214" viewBox="0 0 27.051 17.214">
  <path id="Icon_material-group" data-name="Icon material-group" d="M19.944,14.878a3.689,3.689,0,1,0-3.689-3.689A3.673,3.673,0,0,0,19.944,14.878Zm-9.837,0a3.689,3.689,0,1,0-3.689-3.689A3.673,3.673,0,0,0,10.107,14.878Zm0,2.459c-2.865,0-8.607,1.439-8.607,4.3v3.074H18.714V21.64C18.714,18.775,12.972,17.337,10.107,17.337Zm9.837,0c-.357,0-.762.025-1.193.061a5.189,5.189,0,0,1,2.422,4.242v3.074h7.378V21.64C28.551,18.775,22.809,17.337,19.944,17.337Z" transform="translate(-1.5 -7.5)"/>
</svg>
