<svg xmlns="http://www.w3.org/2000/svg" xmlns:xlink="http://www.w3.org/1999/xlink" width="38.886" height="38.886" viewBox="0 0 38.886 38.886">
  <defs>
    <linearGradient id="linear-gradient" x1="0.5" x2="0.5" y2="1" gradientUnits="objectBoundingBox">
      <stop offset="0" stop-color="#007f00"/>
      <stop offset="1" stop-color="#66c117"/>
    </linearGradient>
  </defs>
  <g id="Group_175" data-name="Group 175" transform="translate(-2912.026 -654.807)">
    <g id="Group_132" data-name="Group 132" transform="translate(2923.418 659.732)">
      <path id="Path_1186" data-name="Path 1186" d="M165.373,73.319a18.4,18.4,0,0,0-.8-3.342,4.762,4.762,0,0,0-2.468-2.772,7.15,7.15,0,0,0-1.291-.266,3.351,3.351,0,0,0-2.658-1.557,7.471,7.471,0,0,0-7.937,5.127,21.042,21.042,0,0,0-.722,2.962,11.067,11.067,0,0,1,.646-3.721,7.451,7.451,0,0,1,7.253-5.392,3.642,3.642,0,0,1,3.418,1.595,4.761,4.761,0,0,0,.835.114,4.59,4.59,0,0,1,2.772,2.544A12.592,12.592,0,0,1,165.373,73.319Z" transform="translate(-149.5 -64.345)" fill="#5860c6" fill-rule="evenodd"/>
    </g>
    <g id="Group_133" data-name="Group 133" transform="translate(2923.408 660.757)">
      <path id="Path_1187" data-name="Path 1187" d="M165.255,85.787q.019,1.1-.038,2.2a18.587,18.587,0,0,1-1.975,5.62,12.642,12.642,0,0,0-2.62-1.595,8.09,8.09,0,0,0,1.671-2.658,1.679,1.679,0,0,0,2.24-1.443,3.151,3.151,0,0,0-.3-1.975.982.982,0,0,0-1.481-.076,6,6,0,0,1-3.19-3.646,9.5,9.5,0,0,1-7.519,3.646q-1.563-.9-1.785.911a2.891,2.891,0,0,0,.38,2.127,1.824,1.824,0,0,0,1.861.456,8.27,8.27,0,0,0,1.519,2.582,13.443,13.443,0,0,0-2.582,1.557.153.153,0,0,1-.228-.038,14.042,14.042,0,0,1-1.823-7.519,21.043,21.043,0,0,1,.722-2.962,7.471,7.471,0,0,1,7.937-5.127,3.351,3.351,0,0,1,2.658,1.557,7.151,7.151,0,0,1,1.291.266,4.762,4.762,0,0,1,2.468,2.772A18.4,18.4,0,0,1,165.255,85.787Z" transform="translate(-149.372 -77.839)" fill="#339" fill-rule="evenodd"/>
    </g>
    <g id="Group_134" data-name="Group 134" transform="translate(2926.056 665.136)">
      <path id="Path_1188" data-name="Path 1188" d="M194.963,139.146a11.987,11.987,0,0,1-.456,3.494,8.09,8.09,0,0,1-1.671,2.658,1.946,1.946,0,0,0-.456.456,4.7,4.7,0,0,1-4.215.684,3.1,3.1,0,0,1-1.139-.608q-.019,1.349-.114,2.658.019-1.368-.038-2.734a6.615,6.615,0,0,1-.646-.532,8.27,8.27,0,0,1-1.519-2.582,8.965,8.965,0,0,1-.456-3.494,9.5,9.5,0,0,0,7.519-3.646A6,6,0,0,0,194.963,139.146Z" transform="translate(-184.234 -135.5)" fill="#feeee3" fill-rule="evenodd"/>
    </g>
    <g id="Group_135" data-name="Group 135" transform="translate(2936.329 668.481)">
      <path id="Path_1189" data-name="Path 1189" d="M319.5,183.337a11.988,11.988,0,0,0,.456-3.494.982.982,0,0,1,1.481.076,3.151,3.151,0,0,1,.3,1.975A1.679,1.679,0,0,1,319.5,183.337Z" transform="translate(-319.5 -179.543)" fill="#fce2d0" fill-rule="evenodd"/>
    </g>
    <g id="Group_136" data-name="Group 136" transform="translate(2924.232 668.484)">
      <path id="Path_1190" data-name="Path 1190" d="M162.065,179.871a8.966,8.966,0,0,0,.456,3.494,1.824,1.824,0,0,1-1.861-.456,2.891,2.891,0,0,1-.38-2.127Q160.5,178.973,162.065,179.871Z" transform="translate(-160.221 -179.573)" fill="#fce1d0" fill-rule="evenodd"/>
    </g>
    <g id="Group_139" data-name="Group 139" transform="translate(2927.975 675.389)">
      <path id="Path_1193" data-name="Path 1193" d="M215.728,270.5q-.019,1.368.038,2.734.37.122.721.228l-.911,3.114a3,3,0,0,0-3.19-1.633,3.148,3.148,0,0,0-1.975,1.557l-.911-3.038a4.155,4.155,0,0,1,.759-.228q.095-1.309.114-2.658a3.1,3.1,0,0,0,1.139.608A4.7,4.7,0,0,0,215.728,270.5Z" transform="translate(-209.5 -270.5)" fill="#fee3d1" fill-rule="evenodd"/>
    </g>
    <g id="Group_140" data-name="Group 140" transform="translate(2924.102 678.351)">
      <path id="Path_1194" data-name="Path 1194" d="M162.373,309.5l.911,3.038a1.441,1.441,0,0,0-.152.608.711.711,0,0,0-.418.987.435.435,0,0,0,.418.228,2.618,2.618,0,0,0,1.215,1.823q.171,1.971.228,3.949-2.56-1.413-5.089-2.886,1.114-1.361,2.354-2.62-1.67-.057-3.342-.038.286-2.093.608-4.177Q160.725,309.9,162.373,309.5Z" transform="translate(-158.5 -309.5)" fill="#e982f9" fill-rule="evenodd"/>
    </g>
    <g id="Group_141" data-name="Group 141" transform="translate(2932.755 678.351)">
      <path id="Path_1195" data-name="Path 1195" d="M274.646,309.5a31.835,31.835,0,0,1,3.342.987q.284,2.048.532,4.1-1.635-.038-3.266.076,1.162,1.256,2.278,2.544-2.494,1.5-5.051,2.924a2.465,2.465,0,0,1-.038-.608q.057-1.672.152-3.342a2.707,2.707,0,0,0,1.291-1.823.459.459,0,0,0,.38-.608q.109-.5-.38-.532a4.08,4.08,0,0,0-.152-.608Z" transform="translate(-272.439 -309.5)" fill="#e982f9" fill-rule="evenodd"/>
    </g>
    <g id="Group_142" data-name="Group 142" transform="translate(2920.375 679.263)">
      <path id="Path_1196" data-name="Path 1196" d="M113.771,321.5q-.321,2.084-.608,4.177,1.671-.019,3.342.038-1.241,1.259-2.354,2.62,2.529,1.473,5.089,2.886.146,1.555.228,3.114a18.358,18.358,0,0,1-7.443-1.861q-1.316-.714-2.582-1.481v-.076q-.019-3.152.038-6.3a3.349,3.349,0,0,1,1.709-2.316A24.77,24.77,0,0,1,113.771,321.5Z" transform="translate(-109.437 -321.5)" fill="#d376e1" fill-rule="evenodd"/>
    </g>
    <g id="Group_143" data-name="Group 143" transform="translate(2932.532 679.339)">
      <path id="Path_1197" data-name="Path 1197" d="M275.272,322.5l1.671.418a3.393,3.393,0,0,1,2.468,2.468q.057,3.266.038,6.532a19.47,19.47,0,0,1-9.949,3.342q.053-1.882.228-3.721a2.467,2.467,0,0,0,.038.608q2.557-1.42,5.051-2.924-1.117-1.288-2.278-2.544,1.631-.114,3.266-.076Q275.557,324.548,275.272,322.5Z" transform="translate(-269.5 -322.5)" fill="#d376e2" fill-rule="evenodd"/>
    </g>
    <g id="Group_144" data-name="Group 144" transform="translate(2928.735 679.807)">
      <path id="Path_1198" data-name="Path 1198" d="M224.816,330.324a4.081,4.081,0,0,1,.152.608q-2.754.038-5.468-.076a1.441,1.441,0,0,1,.152-.608,3.149,3.149,0,0,1,1.975-1.557A3,3,0,0,1,224.816,330.324Z" transform="translate(-219.5 -328.666)" fill="#6beafb" fill-rule="evenodd"/>
    </g>
    <g id="Group_145" data-name="Group 145" transform="translate(2928.256 681.997)">
      <path id="Path_1199" data-name="Path 1199" d="M213.674,357.5q2.715.114,5.468.076.489.035.38.532a.459.459,0,0,1-.38.608h-5.468a.435.435,0,0,1-.418-.228A.711.711,0,0,1,213.674,357.5Z" transform="translate(-213.195 -357.5)" fill="#5fd3e3" fill-rule="evenodd"/>
    </g>
    <g id="Group_146" data-name="Group 146" transform="translate(2928.735 683.212)">
      <path id="Path_1200" data-name="Path 1200" d="M219.5,373.5h5.468a2.707,2.707,0,0,1-1.291,1.823,3.079,3.079,0,0,1-2.962,0A2.618,2.618,0,0,1,219.5,373.5Z" transform="translate(-219.5 -373.5)" fill="#69eafb" fill-rule="evenodd"/>
    </g>
    <g id="Group_147" data-name="Group 147" transform="translate(2929.95 685.035)">
      <path id="Path_1201" data-name="Path 1201" d="M235.5,397.5a3.079,3.079,0,0,0,2.962,0q-.095,1.67-.152,3.342-.175,1.84-.228,3.721a.73.73,0,0,1-.076.456v-.38h-2.051v-.076q-.081-1.559-.228-3.114Q235.671,399.471,235.5,397.5Z" transform="translate(-235.5 -397.5)" fill="#6870e5" fill-rule="evenodd"/>
    </g>
    <g id="Group_148" data-name="Group 148" transform="translate(2930.778 686.399)">
      <path id="Path_1202" data-name="Path 1202" d="M247.7,416.757h-1.291a4.65,4.65,0,0,1,.076-1.139.963.963,0,0,1,.608-.152l.456.038.114.114A8.58,8.58,0,0,1,247.7,416.757Z" transform="translate(-246.404 -415.463)" fill="#bb69ca" fill-rule="evenodd"/>
    </g>
    <g id="Group_149" data-name="Group 149" transform="translate(2930.781 687.693)">
      <path id="Path_1203" data-name="Path 1203" d="M246.443,432.5h1.291a4.628,4.628,0,0,1-.038.835,2.772,2.772,0,0,1-1.1.038l-.114-.114A3.832,3.832,0,0,1,246.443,432.5Z" transform="translate(-246.438 -432.5)" fill="#5861c7" fill-rule="evenodd"/>
    </g>
    <g id="Group_173" data-name="Group 173" transform="translate(2912.026 654.807)">
      <g id="Group_130" data-name="Group 130">
        <path id="Path_1184" data-name="Path 1184" d="M17.272-.5h3.342A19.6,19.6,0,0,1,36.9,11.348a21.2,21.2,0,0,1,1.481,5.924v1.823H38.31A19.294,19.294,0,0,0,28.588,3.563,19.816,19.816,0,0,0,12.031,2.272,19.482,19.482,0,0,0-.234,17.2a11.3,11.3,0,0,0-.19,1.9H-.5V17.272A19.6,19.6,0,0,1,11.348.981,21.2,21.2,0,0,1,17.272-.5Z" transform="translate(0.5 0.5)" fill-rule="evenodd" fill="url(#linear-gradient)"/>
      </g>
      <g id="Group_131" data-name="Group 131" transform="translate(0.076 1.542)">
        <path id="Path_1185" data-name="Path 1185" d="M39.234,37.861a19.747,19.747,0,0,1-8.278,14.354h-.076q.019-3.266-.038-6.532a3.393,3.393,0,0,0-2.468-2.468L26.7,42.8a31.835,31.835,0,0,0-3.342-.987q-.352-.106-.722-.228-.057-1.366-.038-2.734a1.946,1.946,0,0,1,.456-.456,12.643,12.643,0,0,1,2.62,1.595,18.588,18.588,0,0,0,1.975-5.62q.057-1.1.038-2.2a12.592,12.592,0,0,0-.949-4.709,4.59,4.59,0,0,0-2.772-2.544,4.761,4.761,0,0,1-.835-.114A3.642,3.642,0,0,0,19.715,23.2,7.451,7.451,0,0,0,12.462,28.6a11.067,11.067,0,0,0-.646,3.721,14.041,14.041,0,0,0,1.823,7.519.153.153,0,0,0,.228.038,13.443,13.443,0,0,1,2.582-1.557,6.613,6.613,0,0,0,.646.532q.057,1.367.038,2.734a4.154,4.154,0,0,0-.759.228q-1.648.4-3.266.911a24.778,24.778,0,0,0-2.582.8,3.349,3.349,0,0,0-1.709,2.316q-.057,3.152-.038,6.3A19.43,19.43,0,0,1,.5,37.861a11.3,11.3,0,0,1,.19-1.9A19.482,19.482,0,0,1,12.956,21.038,19.816,19.816,0,0,1,29.512,22.33,19.294,19.294,0,0,1,39.234,37.861Z" transform="translate(-0.5 -19.809)" fill-rule="evenodd" fill="url(#linear-gradient)"/>
      </g>
      <g id="Group_137" data-name="Group 137" transform="translate(0 19.595)">
        <path id="Path_1191" data-name="Path 1191" d="M-.5,257.5h.076a19.43,19.43,0,0,0,8.278,14.278v1.595A19.5,19.5,0,0,1-.5,259.019Z" transform="translate(0.5 -257.5)" fill-rule="evenodd" fill="url(#linear-gradient)"/>
      </g>
      <g id="Group_138" data-name="Group 138" transform="translate(30.531 19.595)">
        <path id="Path_1192" data-name="Path 1192" d="M409.778,257.5h.076v1.519a19.5,19.5,0,0,1-8.354,14.354v-1.519A19.748,19.748,0,0,0,409.778,257.5Z" transform="translate(-401.5 -257.5)" fill-rule="evenodd" fill="url(#linear-gradient)"/>
      </g>
      <g id="Group_150" data-name="Group 150" transform="translate(8.354 33.949)">
        <path id="Path_1204" data-name="Path 1204" d="M109.5,446.5q1.266.767,2.582,1.481a18.358,18.358,0,0,0,7.443,1.861v.076a5.141,5.141,0,0,0,.114,1.291.859.859,0,0,0,.19.228h-.911a19.665,19.665,0,0,1-9.418-3.418Z" transform="translate(-109.5 -446.5)" fill-rule="evenodd" fill="url(#linear-gradient)"/>
      </g>
      <g id="Group_151" data-name="Group 151" transform="translate(20.202 33.949)">
        <path id="Path_1205" data-name="Path 1205" d="M275.753,446.5h.076v1.519a19.741,19.741,0,0,1-9.342,3.418H265.5a1.71,1.71,0,0,0,.228-1.139.73.73,0,0,0,.076-.456A19.47,19.47,0,0,0,275.753,446.5Z" transform="translate(-265.5 -446.5)" fill-rule="evenodd" fill="url(#linear-gradient)"/>
      </g>
    </g>
    <g id="Group_152" data-name="Group 152" transform="translate(2930.402 692.174)">
      <path id="Path_1206" data-name="Path 1206" d="M241.454,491.5h2.051v.38a1.71,1.71,0,0,1-.228,1.139h-1.519a.859.859,0,0,1-.19-.228A5.141,5.141,0,0,1,241.454,491.5Z" transform="translate(-241.451 -491.5)" fill="#5861c7" fill-rule="evenodd"/>
    </g>
  </g>
</svg>
