<svg xmlns="http://www.w3.org/2000/svg" width="18.189" height="18.193" viewBox="0 0 18.189 18.193">
  <g id="Icon_ionic-md-photos" data-name="Icon ionic-md-photos" transform="translate(-3.375 -3.375)">
    <path id="Path_5626" data-name="Path 5626" d="M18.766,21.4V9.742A1.872,1.872,0,0,0,16.9,7.875H5.242A1.872,1.872,0,0,0,3.375,9.742V21.4A1.872,1.872,0,0,0,5.242,23.27H16.9A1.877,1.877,0,0,0,18.766,21.4ZM8.154,16.27l1.981,2.8,2.916-4.2,3.848,5.6H5.242Z" transform="translate(0 -1.702)"/>
    <path id="Path_5627" data-name="Path 5627" d="M21.4,3.375H9.742A1.872,1.872,0,0,0,7.875,5.242v.232H19.3a1.872,1.872,0,0,1,1.867,1.867V18.766H21.4A1.872,1.872,0,0,0,23.266,16.9V5.242A1.872,1.872,0,0,0,21.4,3.375Z" transform="translate(-1.702 0)"/>
  </g>
</svg>
