<svg xmlns="http://www.w3.org/2000/svg" width="19.429" height="17" viewBox="0 0 19.429 17">
  <g id="menu-left-alt" transform="translate(-6 -7.5)">
    <path id="Path_5614" data-name="Path 5614" d="M6,8.714A1.214,1.214,0,0,1,7.214,7.5h17a1.214,1.214,0,1,1,0,2.429h-17A1.214,1.214,0,0,1,6,8.714Z" fill="#078f10"/>
    <path id="Path_5615" data-name="Path 5615" d="M6,26.714A1.214,1.214,0,0,1,7.214,25.5h17a1.214,1.214,0,1,1,0,2.429h-17A1.214,1.214,0,0,1,6,26.714Z" transform="translate(0 -3.429)" fill="#078f10"/>
    <path id="Path_5616" data-name="Path 5616" d="M7.214,16.5a1.214,1.214,0,1,0,0,2.429h9.714a1.214,1.214,0,0,0,0-2.429Z" transform="translate(0 -1.714)" fill="#078f10"/>
  </g>
</svg>
