<svg xmlns="http://www.w3.org/2000/svg" width="15" height="15.004" viewBox="0 0 15 15.004">
  <g id="Icon_ionic-md-photos" data-name="Icon ionic-md-photos" transform="translate(-3.375 -3.375)">
    <path id="Path_5626" data-name="Path 5626" d="M16.067,19.028V9.415a1.543,1.543,0,0,0-1.54-1.54H4.915a1.543,1.543,0,0,0-1.54,1.54v9.617a1.543,1.543,0,0,0,1.54,1.54h9.617A1.548,1.548,0,0,0,16.067,19.028ZM7.316,14.8,8.95,17.106l2.405-3.462,3.173,4.615H4.915Z" transform="translate(0 -2.192)" fill="#007f00"/>
    <path id="Path_5627" data-name="Path 5627" d="M19.028,3.375H9.415a1.543,1.543,0,0,0-1.54,1.54v.191H17.3a1.543,1.543,0,0,1,1.54,1.54v9.422h.191a1.543,1.543,0,0,0,1.54-1.54V4.915A1.543,1.543,0,0,0,19.028,3.375Z" transform="translate(-2.192)" fill="#007f00"/>
  </g>
</svg>
