<svg xmlns="http://www.w3.org/2000/svg" width="13.869" height="13.869" viewBox="0 0 13.869 13.869">
  <g id="phone-call_6_1_" data-name="phone-call (6) (1)" transform="translate(0.5 0.5)">
    <path id="Path_5650" data-name="Path 5650" d="M1.938-.5h.569a1.99,1.99,0,0,1,.677.339Q4.277.9,5.31,2.019a1.345,1.345,0,0,1-.257,1.72,5.855,5.855,0,0,1-.7.352A1.284,1.284,0,0,0,3.9,5.757,6.221,6.221,0,0,0,7.085,8.94a1.358,1.358,0,0,0,1.72-.5,1.342,1.342,0,0,1,1.585-1.07,1.387,1.387,0,0,1,.65.325q1.064,1.051,2.1,2.126a1.742,1.742,0,0,1,.23.623v.3a1.612,1.612,0,0,1-.339.786l-1.449,1.449a2.191,2.191,0,0,1-.948.393H9.821a8.03,8.03,0,0,1-2.248-.745A17.434,17.434,0,0,1,2.981,9.089,17.163,17.163,0,0,1,.218,5.216,7.744,7.744,0,0,1-.5,2.886V2.317A2.158,2.158,0,0,1-.107,1.261L1.369-.216A2.1,2.1,0,0,1,1.938-.5Z" fill-rule="evenodd" opacity="0.989"/>
  </g>
</svg>
