<svg xmlns="http://www.w3.org/2000/svg" width="15.985" height="15.985" viewBox="0 0 15.985 15.985">
  <path id="Icon_metro-earth" data-name="Icon metro-earth" d="M10.563,1.928a7.993,7.993,0,1,0,7.993,7.993,7.993,7.993,0,0,0-7.993-7.993Zm0,14.986A6.97,6.97,0,0,1,7.8,16.345l3.64-4.095a.5.5,0,0,0,.126-.332v-1.5a.5.5,0,0,0-.5-.5C9.3,9.921,7.438,8.087,7.42,8.069a.5.5,0,0,0-.353-.146h-2a.5.5,0,0,0-.5.5v3a.5.5,0,0,0,.276.447l1.722.861V15.66A7,7,0,0,1,4.243,6.923H6.067a.5.5,0,0,0,.353-.146l2-2a.5.5,0,0,0,.146-.353V3.217a7.013,7.013,0,0,1,5.062.415c-.065.055-.128.112-.188.172a3,3,0,0,0,2.117,5.117q.074,0,.149,0a11.731,11.731,0,0,1-.131,5.812.5.5,0,0,0-.013.082,6.972,6.972,0,0,1-5,2.1Z" transform="translate(-2.571 -1.928)"/>
</svg>
