<svg xmlns="http://www.w3.org/2000/svg" width="12.46" height="12.46" viewBox="0 0 12.46 12.46">
  <g id="translate" transform="translate(0.5 0.5)">
    <g id="Group_1874" data-name="Group 1874" transform="translate(-0.5 -0.5)">
      <path id="Path_5631" data-name="Path 5631" d="M.6-.5H5.8A1.429,1.429,0,0,1,6.886.644l1.156.815a.4.4,0,0,1,.049.681l-1.18.84q-.018.438-.012.876-.511-.006-1.022.012a2.15,2.15,0,0,0-1.363.548.262.262,0,0,0-.122-.158,1.992,1.992,0,0,1-.9-.268A1.868,1.868,0,0,0,4,2.858.916.916,0,0,0,4.44,2.8a.208.208,0,0,0-.024-.292,7.41,7.41,0,0,0-1.022-.037,2.924,2.924,0,0,0-.037-.608q-.188-.2-.341.024Q3,2.177,3,2.469a7.759,7.759,0,0,0-1.046.037.208.208,0,0,0-.024.292.916.916,0,0,0,.438.061A1.869,1.869,0,0,0,2.883,3.99a1.541,1.541,0,0,1-.827.243.2.2,0,0,0-.158.28l.085.085a1.9,1.9,0,0,0,1.2-.329,2.393,2.393,0,0,0,1.132.365,2.08,2.08,0,0,0-.45,1.217Q3.85,6.375,3.856,6.9,2.323,6.9.79,6.886A1.371,1.371,0,0,1-.5,5.8V.6A1.407,1.407,0,0,1,.6-.5Z" transform="translate(0.5 0.5)" fill-rule="evenodd" opacity="0.99"/>
    </g>
    <g id="Group_1875" data-name="Group 1875" transform="translate(2.761 2.858)">
      <path id="Path_5632" data-name="Path 5632" d="M133.5,137.5h.852a1.468,1.468,0,0,1-.426.9A1.468,1.468,0,0,1,133.5,137.5Z" transform="translate(-133.5 -137.5)" fill-rule="evenodd" opacity="0.93"/>
    </g>
    <g id="Group_1876" data-name="Group 1876" transform="translate(3.203 4.562)">
      <path id="Path_5633" data-name="Path 5633" d="M160.435,208.595V213.8a1.407,1.407,0,0,1-1.1,1.1h-5.208a1.429,1.429,0,0,1-1.083-1.144l-1.156-.815a.4.4,0,0,1-.049-.681l1.18-.84.024-2.628a1.358,1.358,0,0,1,1.278-1.278q2.409-.024,4.818,0A1.371,1.371,0,0,1,160.435,208.595Zm-3.821,1.192a.993.993,0,0,1,.341.036.434.434,0,0,1,.109.134q.38,1.242.767,2.482a.338.338,0,0,1-.438.158,2.581,2.581,0,0,1-.17-.572h-.949a3.347,3.347,0,0,1-.17.572.325.325,0,0,1-.438-.158q.387-1.24.767-2.482A.327.327,0,0,1,156.615,209.787Z" transform="translate(-151.679 -207.5)" fill-rule="evenodd" opacity="0.991"/>
    </g>
    <g id="Group_1877" data-name="Group 1877" transform="translate(7.92 7.482)">
      <path id="Path_5634" data-name="Path 5634" d="M345.841,327.5q.2.587.365,1.192a5.137,5.137,0,0,1-.706.024Q345.659,328.1,345.841,327.5Z" transform="translate(-345.5 -327.5)" fill-rule="evenodd" opacity="0.909"/>
    </g>
  </g>
</svg>
