<svg xmlns="http://www.w3.org/2000/svg" xmlns:xlink="http://www.w3.org/1999/xlink" width="145.984" height="206.853" viewBox="0 0 145.984 206.853">
  <defs>
    <linearGradient id="linear-gradient" x1="-0.459" y1="0.5" x2="0.541" y2="0.5" gradientUnits="objectBoundingBox">
      <stop offset="0" stop-color="#007fdd"/>
      <stop offset="1" stop-color="#0555a7"/>
    </linearGradient>
    <linearGradient id="linear-gradient-2" x1="0.156" y1="0.769" x2="0.773" y2="0.216" gradientUnits="objectBoundingBox">
      <stop offset="0" stop-color="#ffff03"/>
      <stop offset="0.154" stop-color="#fef903"/>
      <stop offset="0.356" stop-color="#fbe902"/>
      <stop offset="0.584" stop-color="#f5ce02"/>
      <stop offset="0.829" stop-color="#eea801"/>
      <stop offset="1" stop-color="#e88a00"/>
    </linearGradient>
    <linearGradient id="linear-gradient-3" x1="0" y1="0.5" x2="1" y2="0.5" xlink:href="#linear-gradient"/>
    <linearGradient id="linear-gradient-4" x1="0.69" y1="0.08" x2="0.433" y2="0.656" gradientUnits="objectBoundingBox">
      <stop offset="0" stop-color="#028eff"/>
      <stop offset="1" stop-color="#05ecfc"/>
    </linearGradient>
    <linearGradient id="linear-gradient-5" y1="0.5" x2="1" y2="0.5" gradientUnits="objectBoundingBox">
      <stop offset="0" stop-color="#00e59e"/>
      <stop offset="1" stop-color="#009372"/>
    </linearGradient>
    <linearGradient id="linear-gradient-6" x1="-0.08" y1="0.756" x2="0.677" y2="0.164" gradientUnits="objectBoundingBox">
      <stop offset="0" stop-color="#ff2934"/>
      <stop offset="0.249" stop-color="#f92631"/>
      <stop offset="0.575" stop-color="#e91e2a"/>
      <stop offset="0.942" stop-color="#ce101d"/>
      <stop offset="1" stop-color="#c90e1b"/>
    </linearGradient>
    <radialGradient id="radial-gradient" cx="0.901" cy="0.497" r="0.261" gradientTransform="translate(-1.067) scale(3.133 1)" gradientUnits="objectBoundingBox">
      <stop offset="0" stop-color="#fff"/>
      <stop offset="1" stop-color="#231f20"/>
    </radialGradient>
    <radialGradient id="radial-gradient-2" cx="0.1" cy="0.47" r="0.308" gradientTransform="translate(-0.398) scale(1.796 1)" xlink:href="#radial-gradient"/>
    <radialGradient id="radial-gradient-3" cx="0.052" cy="0.255" r="0.622" gradientTransform="translate(-0.857) scale(2.714 1)" xlink:href="#radial-gradient"/>
  </defs>
  <g id="XMLID_297_" transform="translate(0)">
    <g id="XMLID_56_" transform="translate(0.005 0)">
      <path id="XMLID_298_" d="M2884.678,664.077l.232-.1c.125-.054.25-.11.373-.166.063-.029.127-.055.19-.084.18-.083.36-.169.537-.256l.018-.008,12.715-6.273c-.184.091-.37.179-.557.265l-.184.081c-.126.057-.253.114-.38.169l-.227.094c-.114.047-.229.1-.344.141l-.247.1c-.109.042-.219.084-.329.125-.128.047-.258.091-.386.136-.078.028-.156.055-.233.081-.153.052-.309.1-.463.148-.055.018-.11.036-.166.052-.211.063-.422.125-.636.183l-.149.039c-.164.044-.328.086-.493.127-.193.047-.386.091-.58.133-.042.01-.084.018-.126.026-.154.032-.31.063-.464.093l-.209.037-.391.067c-.076.013-.153.024-.229.036-.1.015-.2.029-.294.042-.256.036-.513.068-.771.1l-.084.01c-.282.029-.568.052-.854.071l-.209.013c-.318.018-.636.032-.958.039-.219.006-.438.006-.657,0-.068,0-.136,0-.2,0-.289,0-.576-.013-.863-.031-.313-.016-.625-.041-.937-.068-.105-.01-.211-.019-.316-.031-.23-.023-.461-.05-.69-.08-.1-.013-.2-.024-.294-.039-.318-.045-.634-.094-.949-.151l-.024,0c-.307-.055-.612-.119-.916-.187-.1-.021-.191-.044-.287-.066q-.336-.078-.667-.166c-.1-.026-.2-.052-.3-.08-.243-.067-.487-.138-.729-.213-.066-.021-.133-.039-.2-.06q-.455-.144-.906-.305c-.086-.031-.17-.063-.255-.1-.221-.081-.44-.164-.657-.252-.107-.044-.214-.088-.322-.133-.191-.08-.38-.161-.57-.245-.125-.055-.248-.112-.372-.169-.182-.084-.362-.17-.542-.26-.118-.058-.239-.117-.355-.177-.166-.084-.329-.172-.495-.261-.143-.076-.287-.152-.428-.232-.161-.089-.32-.183-.479-.276-.14-.081-.279-.162-.416-.245s-.252-.159-.378-.239c-.192-.122-.383-.243-.573-.37-.128-.086-.255-.174-.382-.261-.18-.125-.36-.252-.537-.38s-.337-.247-.5-.373c-.065-.049-.13-.1-.193-.148-.247-.192-.492-.388-.732-.588-.045-.037-.089-.076-.133-.114-.2-.167-.4-.339-.591-.513-.07-.062-.14-.125-.209-.188q-.28-.256-.555-.518c-.05-.049-.1-.094-.151-.143-.227-.221-.45-.445-.67-.672-.053-.055-.105-.112-.157-.167q-.256-.268-.5-.544c-.065-.073-.131-.146-.2-.221q-.256-.29-.5-.589c-.041-.049-.083-.1-.123-.146-.2-.245-.4-.495-.6-.747-.05-.065-.1-.13-.146-.195-.148-.195-.294-.393-.437-.592l-.172-.24c-.154-.219-.305-.438-.453-.662-.031-.047-.063-.092-.094-.14q-.263-.4-.513-.813c-.044-.073-.088-.146-.132-.221-.125-.209-.248-.422-.368-.635-.049-.086-.1-.172-.145-.258-.135-.243-.264-.489-.393-.737-.021-.042-.044-.083-.065-.125-.146-.287-.287-.579-.424-.873-.037-.081-.073-.162-.11-.243q-.151-.334-.3-.672c-.039-.091-.078-.182-.115-.273-.122-.294-.239-.588-.35-.886-.008-.021-.015-.042-.023-.063q-.158-.426-.3-.859c-.027-.08-.053-.159-.08-.239-.1-.308-.2-.618-.291-.932q-.112-.387-.214-.779c-.013-.049-.024-.1-.038-.148-.052-.2-.1-.4-.147-.607-.016-.067-.031-.133-.045-.2-.055-.245-.109-.492-.158-.74-.062-.312-.117-.626-.169-.943-.016-.1-.029-.193-.044-.291-.034-.222-.067-.443-.094-.667-.016-.125-.031-.25-.045-.375-.02-.175-.039-.351-.057-.526-.013-.131-.024-.261-.036-.393q-.022-.265-.039-.531c-.013-.195-.026-.39-.034-.586-.01-.224-.016-.448-.021-.67,0-.07,0-.141,0-.211,0-.154,0-.308,0-.461,0-.071,0-.144,0-.216,0-.239.008-.477.016-.714,0-.019,0-.041,0-.06.01-.253.024-.506.041-.758,0-.065.01-.128.013-.193.016-.219.034-.438.055-.656,0-.032.006-.066.01-.1.024-.245.053-.489.084-.73.008-.062.016-.123.024-.183.027-.206.058-.412.091-.618.006-.044.013-.088.021-.131.039-.24.083-.477.126-.714l.034-.167c.041-.208.084-.416.131-.62.01-.045.02-.091.029-.135.054-.237.112-.474.172-.708.013-.054.028-.105.042-.157.058-.222.12-.445.185-.664.01-.031.018-.063.027-.094.072-.24.148-.479.226-.717l.054-.159c.084-.253.174-.5.265-.753l.029-.075q.134-.355.278-.706c.016-.039.031-.078.047-.115.111-.268.227-.532.348-.8l.058-.13q.18-.387.37-.766c.02-.041.041-.079.06-.12.149-.294.305-.583.466-.87.021-.037.042-.073.062-.11q.244-.429.5-.846c.023-.037.045-.075.068-.11.136-.217.278-.433.42-.646l.079-.117c.151-.221,1.229-1.63,1.386-1.844l-13.132,6.458c-.157.214-.818,1.438-.969,1.659l-.08.117c-.143.213-.284.428-.42.646l-.034.052c-.011.019-.023.039-.034.057-.174.279-.341.56-.5.847-.021.036-.041.073-.062.109q-.241.429-.466.87c-.009.019-.021.039-.031.058l-.029.06c-.127.253-.251.508-.37.766l-.058.13q-.18.394-.347.8c-.005.013-.012.024-.016.037s-.02.052-.031.08c-.1.234-.188.467-.277.706-.01.026-.02.05-.029.075-.092.248-.18.5-.266.753l-.029.083c-.008.026-.016.052-.024.076-.078.237-.154.476-.226.717-.01.031-.018.063-.027.094-.065.221-.127.442-.185.664-.008.032-.018.063-.027.1l-.015.062c-.06.235-.118.471-.174.708l-.029.135c-.045.206-.089.412-.131.62-.007.036-.015.07-.023.1s-.007.042-.011.063c-.045.237-.088.476-.128.714-.007.044-.013.088-.02.13-.032.206-.063.412-.091.62,0,.036-.011.071-.016.109s0,.05-.008.075c-.031.242-.06.487-.084.73l-.01.1c-.021.218-.039.437-.055.656,0,.036-.007.07-.01.105s0,.058,0,.088c-.016.252-.031.5-.041.758,0,.02,0,.039,0,.058-.008.239-.013.477-.016.717,0,.034,0,.068,0,.1v.112c0,.154,0,.308,0,.463,0,.07,0,.14,0,.211,0,.222.011.446.021.67,0,.119.011.237.018.357.005.078.011.154.016.23.011.177.024.354.039.529.011.131.022.263.036.393.016.177.036.352.057.528.01.078.015.156.024.232.006.047.015.094.02.143.029.222.06.445.094.665.015.1.027.195.044.292.052.315.107.63.169.941,0,0,0,.006,0,.01q.073.368.156.73c.015.067.031.133.045.2.047.2.1.406.148.607.013.049.024.1.037.148.055.211.112.422.172.633.015.049.028.1.042.146.091.313.19.623.291.932.026.08.052.159.079.239.1.287.2.575.3.859.008.021.015.042.022.063.089.237.18.472.276.7.024.06.05.12.076.18.037.091.076.182.115.273q.144.338.3.672c.037.081.073.162.11.243q.2.441.424.873c.021.042.044.083.065.125.126.248.258.493.393.737.047.086.1.172.144.258q.181.321.369.635c.044.073.086.146.13.219q.25.411.513.813c.031.047.063.093.094.14q.222.334.453.662l.171.24c.143.2.289.4.438.592l.146.195c.195.253.393.5.6.747l.122.144q.248.3.506.589c.065.073.13.148.2.221q.249.275.5.544c.052.055.1.112.157.167.219.227.443.453.67.672.05.049.1.1.151.143.124.118.247.237.372.352.06.057.124.11.185.166s.138.125.208.187q.292.261.592.513c.044.037.088.076.131.112.242.2.485.4.734.588.063.05.128.1.193.146.109.083.218.167.328.248l.177.125c.177.13.357.255.537.381.126.088.253.175.381.261.188.127.38.248.571.37.093.058.182.12.274.177.034.021.07.041.105.062.138.084.276.164.416.245.159.092.318.187.479.278.141.08.284.154.428.23.117.062.23.128.347.188l.148.073c.118.06.237.117.355.175.18.088.36.175.542.26.124.057.247.114.372.169.086.037.17.078.256.115.1.045.209.086.313.13l.321.133c.218.088.437.17.657.252.084.031.169.065.255.1.023.008.045.018.066.024.278.1.559.191.839.281.066.021.133.039.2.06.182.055.364.112.547.164.06.018.122.032.183.049.1.028.2.054.3.08.222.058.445.114.669.166.1.023.19.045.286.067.049.011.1.024.148.034q.382.083.769.153l.024,0c.268.049.539.093.808.133l.141.018c.1.015.195.026.294.039.229.029.459.057.69.079.105.011.211.021.316.031.07.007.138.015.206.019.242.02.485.036.729.047.287.018.574.026.864.031.049,0,.1,0,.147,0h.057c.219,0,.438,0,.657,0,.321-.006.641-.021.958-.039.038,0,.076,0,.114,0s.063-.006.1-.008c.286-.019.571-.042.854-.071l.084-.01c.258-.028.516-.06.771-.1.039,0,.078-.008.115-.015.06-.008.12-.019.179-.028.076-.011.152-.023.229-.036.131-.021.261-.044.391-.067l.209-.037c.156-.029.31-.06.466-.093.042-.008.084-.016.127-.026.185-.041.368-.081.552-.125a.2.2,0,0,0,.029-.008q.246-.061.492-.127l.153-.039c.213-.058.425-.118.635-.183.055-.016.108-.036.164-.052.156-.049.31-.1.464-.149l.23-.08c.13-.045.26-.091.389-.138.016-.006.032-.011.049-.016.094-.034.185-.071.279-.107l.25-.1C2884.453,664.171,2884.565,664.124,2884.678,664.077Z" transform="translate(-2807.395 -562.999)" fill="#b7b700"/>
      <path id="XMLID_299_" d="M2904.816,577h0l-12.713,6.273a23.328,23.328,0,0,0-2.68,1.552q-.513.346-1.008.716a23.811,23.811,0,0,0-4.025,3.839h0l12.715-6.273a23.882,23.882,0,0,1,4.023-3.839c.329-.247.666-.487,1.008-.716.513-.344,1.04-.67,1.581-.974q.541-.3,1.1-.578Z" transform="translate(-2837.468 -531.526)" fill="url(#linear-gradient)"/>
      <path id="XMLID_291_" d="M2704.553,700.948c-.288.008-.575.008-.862,0s-.576-.013-.864-.031c-11.5-.584-21.422-9.092-24.7-20.361a27.313,27.313,0,0,1,4.262-24.11l-18.6,23.878-15.48,19.862-3.713,4.765-.849,1.086a87.57,87.57,0,0,0,12.3,19.965c6.9,8.38,13.818,17.168,20.005,25.575l8.8-11.295,3.491-4.479,15.31-19.639,1.341-1.717,16.529-21.2A23.336,23.336,0,0,1,2704.553,700.948Z" transform="translate(-2635.885 -598.081)" fill="url(#linear-gradient-2)"/>
      <path id="XMLID_295_" d="M2843.611,303.185c.135.007.268.015.4.023.307.018.614.039.918.062.1.008.2.013.3.021q.608.049,1.217.107l.242.026c.325.032.647.068.972.106l.412.05c.271.034.542.068.812.105.145.019.289.039.432.06q.419.061.837.127l.367.057c.4.065.793.131,1.188.2l.063.011c.375.068.747.14,1.12.214l.378.078c.271.055.542.114.812.172.141.031.281.062.42.094.268.06.534.123.8.187.128.031.256.06.385.092.342.084.683.17,1.024.261l.14.036q.579.153,1.157.32l.321.094c.278.081.553.162.831.247.13.039.26.079.388.12.268.083.534.169.8.255l.349.114q.565.187,1.125.381l12.715-6.273q-.56-.2-1.125-.381c-.115-.039-.232-.076-.349-.114-.266-.086-.534-.172-.8-.255-.128-.041-.258-.08-.388-.118-.278-.084-.554-.166-.833-.247l-.322-.094c-.037-.011-.074-.023-.114-.033-.347-.1-.7-.193-1.045-.286l-.14-.036q-.512-.134-1.024-.261l-.383-.092c-.268-.063-.534-.127-.8-.187l-.419-.094c-.1-.023-.2-.047-.305-.068l-.51-.105-.375-.078q-.56-.112-1.122-.214l-.062-.011c-.395-.071-.79-.138-1.188-.2l-.367-.057c-.182-.029-.364-.058-.547-.086-.1-.015-.193-.026-.291-.041l-.432-.06c-.269-.037-.54-.071-.812-.106l-.412-.05c-.323-.037-.648-.073-.972-.105l-.242-.026c-.375-.037-.75-.07-1.125-.1-.031,0-.062,0-.091-.006-.1-.008-.2-.015-.3-.021-.307-.023-.612-.044-.918-.062-.135-.008-.268-.016-.4-.023-.287-.016-.576-.029-.865-.041-.124,0-.247-.011-.37-.015q-.609-.022-1.217-.033l-.326,0c-.078,0-.154,0-.232,0-.248,0-.495,0-.742,0l-.377,0c-.266,0-.531.006-.8.013-.1,0-.195,0-.292.007q-.538.015-1.076.037l-.2.01c-.292.013-.583.029-.873.047-.042,0-.086,0-.128.007l-.2.015q-.433.029-.864.063c-.107.008-.213.016-.32.026-.376.032-.753.067-1.128.105l-.11.011q-.511.054-1.018.115c-.11.013-.222.028-.333.042-.286.036-.573.075-.857.115l-.2.026c-.026,0-.052.008-.078.013q-.619.09-1.235.193l-.27.045q-.567.1-1.129.2l-.151.028c-.409.08-.818.164-1.224.25-.094.02-.188.041-.282.062-.411.091-.821.183-1.229.281,0,0,0,0,0,0-.291.07-.579.143-.867.216l-.091.024c-.26.067-.52.135-.777.206-.1.028-.2.057-.307.086-.185.052-.37.1-.555.156-.12.034-.239.071-.359.107-.166.049-.333.1-.5.148-.124.037-.247.078-.37.115-.161.05-.321.1-.482.151l-.373.122c-.157.052-.316.1-.474.156-.127.042-.253.088-.38.131l-.461.159c-.128.045-.257.093-.385.14s-.274.1-.411.149l-.026.01c-.443.164-.883.334-1.321.508-.07.028-.141.055-.211.084-.424.17-.844.344-1.263.524-.076.032-.153.065-.229.1q-.631.273-1.256.56l-.176.081c-.437.2-.872.409-1.3.622l-12.715,6.273c.43-.213.865-.419,1.3-.622.058-.028.117-.055.175-.081q.623-.287,1.254-.56l.229-.1q.628-.268,1.263-.524c.07-.028.141-.055.211-.084.438-.174.878-.344,1.32-.508l.441-.161c.127-.045.253-.093.382-.138.152-.054.307-.107.461-.159l.38-.131c.156-.054.313-.1.47-.156l.375-.123.492-.154c.12-.037.239-.076.36-.112.167-.05.336-.1.5-.149.119-.034.235-.071.354-.105.185-.054.372-.105.558-.157l.3-.084c.26-.071.519-.14.781-.206.029-.008.058-.016.087-.023.291-.075.581-.146.872-.217.407-.1.816-.191,1.227-.281l.284-.062q.609-.131,1.224-.25l.153-.029q.562-.107,1.128-.2l.269-.045q.616-.1,1.235-.193l.274-.039c.286-.041.573-.08.86-.115l.331-.042q.509-.061,1.02-.115l.11-.011c.375-.039.75-.073,1.128-.105.105-.01.212-.018.32-.026q.431-.034.863-.063l.331-.021c.291-.018.581-.032.873-.047l.2-.01c.357-.016.716-.028,1.076-.037.1,0,.195,0,.292-.006.265-.007.531-.011.8-.013.125,0,.251,0,.376,0,.247,0,.5,0,.742,0,.187,0,.372,0,.558,0q.611.01,1.218.032l.37.015C2843.035,303.156,2843.324,303.169,2843.611,303.185Z" transform="translate(-2777.59 -296.82)" fill="#006287"/>
      <path id="XMLID_289_" d="M2732.358,335.457a61.019,61.019,0,0,0-49.328,23.391l32.266,28.7c.132-.167.266-.333.417-.516l37.308-47.866A65.624,65.624,0,0,0,2732.358,335.457Z" transform="translate(-2668.789 -329.179)" fill="url(#linear-gradient-3)"/>
      <path id="XMLID_290_" d="M2921.708,358.36,2884.4,406.224a23.376,23.376,0,0,1,18.537-8.509c14.089.227,26.036,12.392,26.684,27.174a27.58,27.58,0,0,1-.526,6.755,25.5,25.5,0,0,1-3.746,9.035l7-8.982L2962,393.656C2953.312,377.192,2938.834,364.362,2921.708,358.36Z" transform="translate(-2837.477 -348.372)" fill="url(#linear-gradient-4)"/>
      <path id="XMLID_294_" d="M3117.286,327.124l.255.1c.456.187.91.38,1.363.576l.357.157c.365.161.727.325,1.089.492.119.055.237.109.354.164q.682.319,1.355.652c.073.036.144.073.217.11q.565.282,1.123.575l.459.242q.489.261.974.529c.135.075.269.148.4.222q.672.377,1.337.768c.034.021.068.042.1.062q.6.358,1.2.729c.188.117.375.235.562.354.271.172.542.344.812.519.193.125.383.253.575.38q.392.261.782.527.287.2.574.4c.257.18.513.36.768.544.188.135.376.271.563.407.211.154.42.312.63.469.312.234.623.471.932.709.191.148.381.3.571.446q.47.372.935.753c.175.143.351.286.524.43.354.294.7.594,1.052.9.124.107.248.211.372.32q.7.616,1.391,1.25.565.521,1.118,1.053c.028.026.055.052.081.078q.6.574,1.18,1.164c.127.127.25.256.375.385.261.268.523.534.781.807.151.157.3.32.446.479.229.245.459.492.685.74.158.172.312.349.467.523.214.24.427.479.638.722.159.183.316.368.472.552q.3.358.607.717c.157.19.313.381.469.573.2.24.391.48.584.724.156.195.309.391.463.588q.285.365.565.734c.151.2.3.4.451.6.185.248.367.5.549.748.146.2.292.4.438.609.18.253.359.51.536.764.142.2.282.407.422.613.177.261.351.524.524.787.135.2.27.407.4.614.175.271.347.545.519.818.127.2.253.4.378.6.177.289.35.579.524.87.114.191.23.38.342.573.19.323.375.651.558.977.093.162.187.323.278.487q.409.738.8,1.483l12.715-6.273q-.394-.747-.805-1.483c-.091-.164-.185-.325-.277-.487-.185-.326-.37-.652-.559-.977-.112-.192-.229-.381-.342-.573-.174-.29-.347-.581-.524-.87-.125-.2-.252-.4-.378-.6-.172-.274-.344-.547-.52-.82-.133-.206-.268-.409-.4-.613-.174-.263-.347-.526-.524-.787-.139-.206-.281-.411-.422-.615-.177-.255-.355-.511-.534-.764-.144-.2-.292-.407-.438-.61-.182-.25-.364-.5-.549-.747-.149-.2-.3-.4-.451-.6-.187-.247-.375-.49-.565-.734q-.229-.295-.461-.588c-.193-.243-.388-.484-.584-.724q-.234-.287-.469-.573-.3-.363-.607-.717c-.157-.185-.315-.37-.472-.552-.211-.242-.424-.48-.636-.719-.156-.175-.312-.352-.469-.526-.226-.248-.454-.492-.682-.737-.149-.161-.3-.323-.449-.482-.256-.271-.518-.537-.777-.8-.127-.13-.252-.26-.378-.388q-.584-.589-1.18-1.164l-.083-.078q-.533-.514-1.076-1.014l-.042-.037q-.689-.633-1.391-1.25c-.122-.107-.247-.211-.37-.318-.349-.3-.7-.6-1.053-.9-.174-.144-.349-.287-.524-.43q-.465-.38-.935-.753-.285-.224-.571-.446c-.308-.239-.62-.476-.932-.709-.114-.086-.226-.175-.341-.26l-.287-.208q-.28-.2-.563-.407c-.255-.183-.51-.364-.768-.544-.19-.133-.381-.266-.575-.4-.26-.177-.521-.352-.782-.527-.191-.127-.383-.255-.574-.38-.27-.175-.541-.347-.812-.519-.187-.118-.373-.237-.562-.354-.062-.037-.122-.078-.183-.115-.338-.208-.677-.411-1.018-.613-.034-.021-.068-.042-.1-.062q-.665-.392-1.337-.768c-.133-.075-.268-.148-.4-.222q-.485-.268-.974-.529c-.153-.081-.305-.162-.459-.242l-.334-.177c-.261-.135-.524-.266-.787-.4-.073-.036-.146-.075-.219-.11q-.675-.334-1.355-.652l-.354-.164q-.543-.251-1.091-.492l-.355-.157c-.066-.029-.133-.06-.2-.089q-.579-.248-1.162-.487l-.255-.1q-.6-.241-1.2-.472c-.107-.041-.213-.083-.32-.122q-.633-.239-1.271-.466l-.208-.073-12.715,6.273q.743.26,1.477.539l.32.122Q3116.685,326.882,3117.286,327.124Z" transform="translate(-3030.055 -316.003)" fill="#0084a3"/>
      <path id="XMLID_293_" d="M3129.031,573.7c.006-.292.013-.583.016-.876v-.513c0-.5,0-.993-.015-1.493q0-.095,0-.19c-.011-.526-.028-1.052-.052-1.581q-.02-.467-.047-.932c0-.021,0-.042,0-.063-.022-.391-.047-.781-.076-1.17,0-.065-.011-.13-.016-.2-.024-.325-.05-.648-.08-.971-.011-.135-.024-.268-.037-.4-.024-.256-.049-.511-.075-.766-.014-.148-.031-.3-.049-.443-.028-.243-.055-.487-.084-.73-.01-.083-.018-.166-.029-.248-.008-.06-.016-.12-.024-.179q-.061-.477-.127-.953-.019-.141-.039-.282-.087-.609-.185-1.216c-.016-.1-.032-.193-.048-.289-.052-.312-.1-.623-.159-.935-.023-.133-.047-.265-.071-.4-.054-.291-.107-.579-.164-.868-.016-.081-.029-.162-.045-.243-.007-.036-.015-.07-.021-.105q-.134-.672-.279-1.341c-.02-.091-.041-.182-.062-.273-.084-.38-.172-.76-.263-1.136-.024-.1-.047-.2-.073-.3-.107-.441-.219-.883-.334-1.321-.023-.086-.045-.172-.07-.258-.1-.377-.2-.752-.309-1.125-.018-.063-.034-.128-.052-.191s-.031-.1-.045-.154c-.044-.154-.089-.307-.135-.459-.052-.174-.1-.347-.154-.519-.045-.153-.092-.305-.14-.456q-.08-.258-.162-.516l-.146-.456c-.055-.17-.11-.341-.167-.511-.05-.153-.1-.3-.153-.456-.057-.169-.115-.338-.174-.506-.052-.151-.105-.3-.159-.453l-.18-.5c-.053-.149-.109-.3-.164-.45-.062-.167-.125-.334-.187-.5l-.17-.448c-.063-.166-.128-.331-.193-.495s-.117-.3-.177-.446l-.083-.209c-.018-.044-.037-.088-.055-.133q-.319-.789-.657-1.568l-.1-.224c-.23-.527-.464-1.052-.706-1.571-.028-.06-.057-.12-.084-.182-.25-.534-.5-1.065-.765-1.592-.018-.037-.037-.075-.055-.112-.274-.55-.552-1.1-.839-1.639v0l-12.715,6.273q.428.813.839,1.639c.02.037.037.075.057.112.261.528.514,1.058.764,1.591l.086.183c.242.519.476,1.044.706,1.569.032.075.067.149.1.226q.336.779.656,1.566c.047.115.094.229.14.344l.175.443c.065.166.13.331.195.5l.17.446c.063.167.125.334.187.5.055.149.111.3.164.45.062.167.122.336.18.5.053.151.107.3.159.453.058.169.117.338.173.506.052.151.1.3.153.456.057.17.112.341.167.511.049.151.1.3.146.456.055.172.109.344.162.516.047.153.094.3.14.456.052.174.1.346.154.519.045.153.091.307.135.459l.1.346c.106.373.208.747.308,1.123.023.086.047.174.07.26q.173.657.333,1.32l.073.305q.134.567.261,1.135c.02.091.041.182.062.273q.146.667.279,1.339l.068.351q.083.431.164.865c.024.133.049.266.072.4.055.31.107.62.157.93.016.1.033.195.049.294q.1.606.183,1.216l.039.282q.066.475.127.953c.018.143.036.286.052.427.029.243.057.487.084.73q.024.221.049.443c.026.255.052.511.075.766.013.133.026.268.037.4.029.323.055.646.08.971,0,.065.011.13.016.2.028.39.054.779.076,1.17q.029.5.05.995c.023.529.039,1.055.052,1.581l.005.188c.01.5.014,1,.014,1.493v.252c0,.38-.008.758-.016,1.136,0,.175-.005.349-.01.524-.014.531-.034,1.062-.06,1.589a.1.1,0,0,0,0,.016v0c0,.01,0,.026,0,.045v.015c0,.021,0,.045,0,.075v.008c0,.029,0,.065,0,.1v.437c0,.054,0,.107,0,.166,0,.032,0,.068,0,.1,0,.055,0,.112,0,.17,0,.041,0,.083,0,.125,0,.062,0,.125,0,.19,0,.044,0,.089,0,.135,0,.07,0,.143-.007.216,0,.049,0,.1,0,.144,0,.081-.007.167-.01.253,0,.047,0,.093-.006.14,0,.114-.011.23-.018.351,0,.026,0,.049,0,.075-.008.148-.016.3-.026.458,0,.044-.007.089-.008.133-.006.115-.015.232-.023.352,0,.078-.011.157-.016.237s-.011.156-.018.235-.013.17-.02.255-.013.164-.02.248-.015.175-.023.265-.014.175-.023.265-.018.183-.026.276-.016.182-.026.274-.019.193-.029.289-.02.19-.029.287-.021.2-.032.3-.021.2-.032.3-.024.209-.037.313-.024.2-.036.305-.028.217-.041.326-.026.209-.041.317c-.021.161-.042.325-.065.49-.006.044-.011.086-.018.128q-.044.316-.091.643c-.008.058-.018.12-.026.179-.024.159-.047.32-.073.482-.013.081-.026.164-.039.247-.022.143-.045.287-.07.432-.014.091-.031.183-.045.274-.022.141-.047.284-.071.427l-.049.284c-.026.146-.052.3-.079.443-.016.093-.032.183-.051.278-.031.166-.062.333-.094.5-.014.078-.029.154-.044.23-.01.05-.021.1-.031.154q-.1.494-.2,1l-.049.237q-.117.555-.245,1.125c-.016.071-.034.144-.05.217q-.117.514-.244,1.037l-.049.2q-.144.587-.3,1.185c-.024.094-.049.188-.074.282q-.124.47-.255.946c-.021.078-.042.157-.065.235-.107.381-.217.768-.331,1.156-.026.089-.054.179-.08.269q-.144.48-.294.966c-.031.1-.06.2-.093.3q-.187.594-.386,1.195c-.026.076-.052.154-.078.232q-.158.475-.326.953l-.122.347c-.119.334-.24.672-.365,1.01-.023.063-.045.127-.07.19q-.221.592-.455,1.191l-.126.32c-.122.31-.248.622-.375.933-.047.114-.092.227-.139.341-.167.4-.338.807-.515,1.211l-.039.088c-.164.377-.334.755-.506,1.135-.055.12-.11.24-.166.359q-.219.475-.446.949c-.05.1-.1.208-.148.312-.2.409-.4.816-.607,1.227-.037.075-.078.149-.115.226q-.278.543-.566,1.086c-.062.117-.123.232-.187.349-.232.43-.468.862-.709,1.294,0,.007-.008.013-.011.019-.239.424-.485.847-.735,1.272l-.209.351c-.219.367-.442.732-.67,1.1-.046.073-.089.146-.135.219q-.368.587-.751,1.172l-.192.289c-.2.3-.4.6-.6.893l-.268.39q-.29.416-.586.833c-.086.12-.171.24-.257.359q-.422.584-.859,1.164-.754,1-1.511,2.008l-.014.019q-.747,1-1.495,2c-.008.01-.015.019-.023.031q-.74,1-1.479,2c-.013.019-.028.037-.041.057q-.731.991-1.454,1.987c-.018.024-.036.049-.052.073q-.721.988-1.437,1.98c-.018.026-.037.05-.055.076q-.713.986-1.418,1.975l-.067.092q-.7.981-1.4,1.964c-.023.032-.045.065-.068.1q-.691.979-1.375,1.956l-.078.112q-.676.969-1.347,1.938l-.086.125q-.665.962-1.32,1.92c-.029.044-.058.086-.089.13q-.653.954-1.293,1.905c-.031.047-.063.092-.094.14q-.635.945-1.262,1.883l-.1.151q-.621.932-1.23,1.86c-.034.05-.066.1-.1.153q-.606.925-1.2,1.842l-.1.159q-.59.913-1.166,1.816c-.034.055-.07.109-.1.164q-.572.9-1.13,1.789c-.013.021-.026.042-.039.062-.078.125-.154.248-.232.372-.1.167-.208.333-.31.5l-.291.471c-.1.166-.2.333-.307.5s-.188.307-.282.461l-.305.5c-.093.151-.183.3-.274.453-.1.167-.2.334-.3.5s-.18.3-.271.45c-.1.166-.2.329-.3.5l-.266.448c-.1.164-.195.328-.291.492s-.175.3-.261.446l-.282.482-.258.443-.277.48-.252.438c-.091.157-.18.317-.271.474l-.248.438c-.088.156-.175.31-.261.464s-.163.291-.242.435-.172.308-.257.463-.157.286-.235.428-.167.305-.25.456l-.232.427c-.081.151-.162.3-.242.45s-.151.282-.226.424-.158.3-.235.443l-.219.416c-.076.148-.154.294-.229.44s-.143.274-.213.412-.149.289-.222.433l-.1.191c-.037.073-.073.146-.11.219l-.211.42c-.068.136-.135.271-.2.406l-.2.415-.195.4c-.066.136-.131.274-.2.409s-.127.263-.188.394-.126.268-.188.4-.122.26-.18.39-.122.265-.182.4-.117.255-.174.381-.117.26-.174.39-.112.252-.166.377-.112.256-.167.385l-.159.37c-.053.127-.105.252-.159.377-.028.067-.057.133-.084.2-.02.045-.036.089-.055.135-.081.2-.162.4-.24.592-.032.081-.066.164-.1.245-.107.273-.213.542-.312.808l-.039.106q-.13.346-.252.685c-.031.086-.06.169-.089.253-.063.179-.123.355-.183.531-.016.049-.034.1-.05.146l-.039.12c-.057.17-.11.339-.164.508-.024.078-.05.156-.073.232-.075.24-.146.479-.213.714-.1.354-.2.7-.3,1.045l-.093.334c-.063.227-.125.454-.187.677l-.105.391c-.054.2-.107.4-.159.594-.036.133-.07.265-.105.4-.049.187-.1.372-.146.555-.015.058-.031.118-.047.177-.021.078-.039.153-.06.23-.04.156-.081.31-.12.463-.034.135-.07.268-.1.4-.041.157-.08.312-.118.466-.032.125-.063.248-.094.372-.039.154-.078.307-.115.458-.031.125-.063.248-.094.372-.042.167-.083.331-.124.493s-.076.3-.113.451c-.044.177-.088.349-.13.521-.033.127-.063.25-.094.375s-.062.242-.091.36-.063.25-.1.375c-.028.109-.055.219-.083.326-.031.123-.063.242-.094.362l-.083.316-.044.166c-.036.138-.073.276-.109.411-.018.063-.034.127-.052.19-.036.13-.07.256-.105.383-.016.057-.031.114-.047.17-.049.177-.1.352-.148.523-.063.217-.126.427-.19.633-.021.067-.041.13-.062.195-.044.138-.086.274-.13.406s-.091.276-.138.409a.051.051,0,0,1-.006.018c-.052.149-.105.3-.159.438-.013.036-.028.073-.041.109-.05.135-.1.266-.154.393l-.01.024c-.019.049-.04.094-.062.143-.044.1-.086.2-.13.3-.026.055-.052.107-.078.162-.041.084-.08.17-.12.252-.063.125-.128.247-.193.364l-.044.073c-.052.091-.1.18-.159.265l-.083.125c-.044.065-.086.131-.131.193-.031.042-.062.083-.093.123-.046.062-.093.122-.14.18l-.052.063c-.068.08-.136.157-.208.23l-.013.015c-.075.076-.151.149-.229.217-.019.018-.039.034-.058.05-.078.067-.156.13-.237.19l-.008.007c-.083.062-.169.118-.256.172l-.067.041c-.089.054-.178.1-.272.149l12.715-6.273c.094-.045.183-.1.272-.149.023-.013.044-.026.067-.041.088-.055.174-.11.257-.172l.008-.006c.081-.06.159-.123.237-.19l.058-.05c.078-.07.154-.141.229-.219l.013-.015c.072-.073.14-.151.208-.23.018-.021.036-.042.052-.063l.047-.057c.032-.039.062-.083.092-.125s.063-.081.093-.123c.044-.062.087-.128.131-.193.028-.041.055-.081.081-.123l.016-.024c.049-.078.1-.159.143-.24.015-.024.029-.047.042-.073.063-.114.125-.229.187-.351a.047.047,0,0,1,.007-.013c.041-.08.08-.166.118-.248.026-.055.053-.109.079-.166.042-.094.084-.193.127-.291.021-.049.042-.1.063-.146,0,0,0,0,0-.007a.124.124,0,0,0,.008-.021c.052-.128.1-.261.156-.4.013-.036.027-.071.04-.107.053-.143.106-.287.159-.437,0-.007,0-.015.008-.021.036-.106.073-.211.109-.32.01-.028.018-.058.027-.086.044-.133.088-.271.132-.409.019-.065.041-.127.06-.193.063-.206.127-.415.19-.633.049-.17.1-.344.148-.523.016-.055.031-.114.047-.17.034-.125.07-.253.1-.381.018-.063.034-.128.052-.193.036-.133.072-.268.107-.406l.043-.169c.005-.021.01-.041.017-.06.021-.083.044-.17.066-.256.031-.12.062-.24.094-.362s.057-.221.084-.331.063-.245.094-.372.058-.229.086-.344c.034-.135.068-.269.1-.407s.07-.276.1-.416c.047-.19.1-.383.145-.579.037-.149.074-.3.114-.451.031-.125.063-.252.1-.38.038-.148.075-.3.114-.446.032-.128.065-.256.1-.386.039-.151.076-.3.117-.456.034-.133.068-.268.1-.4.039-.153.079-.307.12-.463.036-.135.07-.271.105-.407.047-.183.1-.368.146-.555.034-.131.07-.263.105-.4.052-.195.105-.394.159-.594.036-.13.07-.26.105-.391l.183-.667c.033-.115.063-.229.1-.344q.144-.514.294-1.044c.066-.234.138-.472.213-.714l.073-.232c.054-.167.107-.336.164-.506.029-.089.06-.177.089-.266.058-.175.12-.352.183-.529.029-.084.059-.169.089-.255.081-.226.164-.454.251-.683l.039-.105q.151-.4.312-.808l.1-.245c.078-.2.157-.393.24-.592.045-.11.091-.222.138-.334s.1-.25.158-.375.105-.247.159-.37.111-.255.167-.383l.166-.377c.057-.13.115-.26.174-.39s.115-.255.174-.383.12-.263.182-.4.12-.26.182-.391.125-.266.188-.4.125-.263.188-.394.131-.273.2-.409l.195-.4c.068-.138.136-.276.2-.415s.133-.269.2-.406.14-.279.211-.42.138-.273.208-.409.147-.289.222-.433l.213-.412c.075-.144.151-.291.229-.437l.22-.42.234-.44c.075-.141.151-.282.227-.424s.161-.3.242-.45l.232-.427.248-.453.239-.433.255-.459.243-.437c.086-.153.172-.307.26-.461s.167-.3.252-.445.177-.31.266-.466.17-.3.256-.446l.273-.472.261-.451c.093-.157.185-.315.278-.474s.177-.3.266-.454.19-.321.286-.482l.271-.456c.1-.161.193-.323.291-.484s.184-.307.276-.459l.3-.495c.093-.151.184-.3.276-.454.1-.167.2-.333.305-.5l.282-.461.307-.5.291-.471c.1-.166.208-.333.31-.5.091-.144.18-.289.271-.435q.558-.889,1.13-1.789c.034-.055.07-.109.1-.164q.575-.9,1.165-1.816l.1-.159q.594-.918,1.2-1.842c.034-.05.066-.1.1-.153q.609-.928,1.23-1.86l.1-.151q.626-.94,1.263-1.883c.031-.047.063-.093.094-.14q.64-.949,1.293-1.905l.087-.13q.655-.959,1.32-1.92l.086-.125q.669-.966,1.347-1.936l.078-.112q.684-.976,1.375-1.956c.023-.032.045-.065.068-.1q.694-.981,1.4-1.964l.066-.093q.706-.988,1.418-1.975c.018-.026.038-.05.055-.076q.716-.991,1.437-1.98c.018-.024.036-.049.052-.073q.725-1,1.454-1.987c.013-.018.027-.037.041-.057q.738-1,1.479-2c.008-.01.015-.019.022-.031q.748-1.005,1.495-2l.015-.019q.755-1.008,1.511-2.008c.292-.386.578-.776.859-1.164.086-.12.171-.24.257-.359.2-.278.395-.555.586-.833l.268-.388c.2-.3.4-.6.6-.893l.191-.289c.255-.39.507-.781.751-1.172l.034-.054c.034-.055.066-.11.1-.166q.341-.548.67-1.1l.209-.351c.25-.424.5-.847.735-1.271,0-.006.008-.013.011-.019q.365-.648.709-1.292c.063-.117.125-.234.187-.351.192-.362.382-.724.565-1.084l.088-.167.029-.058c.208-.409.409-.82.607-1.227.051-.1.1-.206.148-.308q.229-.477.448-.953.083-.178.164-.355.26-.572.51-1.141c.011-.028.024-.055.036-.083q.265-.609.515-1.214c.018-.042.037-.086.053-.128.03-.071.057-.141.084-.211q.193-.47.377-.936c.042-.106.084-.213.125-.318.156-.4.308-.8.454-1.193l.068-.187q.188-.509.367-1.014l.122-.346c.112-.321.221-.641.328-.958.02-.057.041-.115.058-.172.007-.018.011-.036.018-.055q.2-.6.386-1.2c.031-.1.06-.195.091-.292.1-.325.2-.646.294-.966.027-.091.053-.18.081-.271q.171-.582.331-1.152c.023-.08.044-.159.065-.239q.132-.475.253-.943c.014-.057.031-.115.045-.172.01-.037.018-.075.029-.112q.156-.6.3-1.183c.018-.07.033-.138.05-.208q.127-.523.244-1.034c.016-.073.034-.146.05-.219.086-.38.167-.753.245-1.123.018-.081.034-.161.05-.242.07-.336.138-.669.2-1,.006-.034.015-.07.021-.1s.007-.034.01-.052l.044-.229c.032-.169.065-.338.1-.5.016-.091.032-.18.049-.271.028-.151.053-.3.08-.45q.024-.139.049-.278c.024-.146.049-.289.073-.433.015-.089.029-.18.044-.269.024-.146.047-.291.07-.435l.039-.245c.026-.166.051-.328.075-.49.008-.057.018-.114.026-.17.033-.217.062-.432.091-.644.007-.042.011-.084.016-.127.02-.144.039-.289.058-.432,0-.021,0-.042.008-.063l.039-.307c.015-.112.029-.226.042-.336s.023-.2.036-.3.026-.218.037-.323.021-.193.032-.29l.034-.307c.01-.094.02-.185.029-.278s.021-.2.031-.3.016-.177.024-.265.018-.193.026-.286.015-.17.023-.255.016-.183.023-.274.013-.161.02-.242.015-.175.021-.26.011-.156.017-.232.009-.125.013-.185c0-.019,0-.037,0-.057.008-.117.015-.229.023-.341,0-.049.007-.1.01-.144.01-.156.018-.308.026-.454,0-.031,0-.058,0-.088.007-.115.012-.229.017-.338,0-.05,0-.1.006-.144,0-.084.007-.167.01-.247,0-.052,0-.1,0-.153,0-.071,0-.141.006-.208,0-.049,0-.1,0-.141,0-.063,0-.123,0-.182s0-.089,0-.131,0-.109,0-.162c0-.037,0-.076,0-.112,0-.057,0-.109,0-.159v-.437c0-.041,0-.078,0-.11s0-.041,0-.057v-.044a.164.164,0,0,0,0-.032v-.026q.039-.791.06-1.589C3129.026,574.051,3129.028,573.876,3129.031,573.7Z" transform="translate(-2983.068 -498.144)" fill="#007564"/>
      <path id="XMLID_292_" d="M2935.822,607.725a75.345,75.345,0,0,0-8.672-31.9L2897.5,613.872l-7.011,9c-.4.591-.816,1.165-1.256,1.716-.307.383-.625.753-.959,1.126l-16.529,21.2-1.341,1.717-15.31,19.639-3.491,4.479-8.8,11.295c8.347,11.348,15.36,22,19.2,30.031.717,1.5,1.324,2.912,1.808,4.217,4.986,13.466,5.216,19,10.942,19.095l.5.008c3.445.055,4.726-1.928,6.028-6.419.862-2.972,1.733-7.044,3.252-12.35,3.811-13.322,19.75-37.326,35.813-58.585s15.482-45.553,15.464-45.553Q2935.974,611.152,2935.822,607.725Z" transform="translate(-2802.628 -530.546)" fill="url(#linear-gradient-5)"/>
      <path id="XMLID_287_" d="M2609.529,479.62a67.93,67.93,0,0,0-14.169,45.367c.1,2.284.3,4.543.589,6.773a67.033,67.033,0,0,0,2.144,11.739,92.978,92.978,0,0,0,5.062,14.414l.849-1.086,3.713-4.765,33.59-43.1c.159-.217.32-.43.487-.643Z" transform="translate(-2595.289 -449.951)" fill="url(#linear-gradient-6)"/>
    </g>
    <path id="XMLID_316_" d="M3086.7,408.839a75.362,75.362,0,0,0-8.672-31.9c-8.687-16.464-23.164-29.294-40.29-35.3a66.018,66.018,0,0,0-13.817-3.236,66.329,66.329,0,0,1,9.769,2.611c17.126,6,31.6,18.832,40.29,35.3a75.316,75.316,0,0,1,8.672,31.9q.149,3.425-.015,6.763c.018,0,.6,24.293-15.464,45.555s-32,45.261-35.813,58.584c-1.518,5.306-2.392,9.378-3.253,12.35-1.193,4.109-2.366,6.122-5.2,6.39a5.652,5.652,0,0,0,2.717.648l.5.008c3.446.055,4.726-1.93,6.029-6.421.86-2.972,1.733-7.044,3.253-12.35,3.809-13.322,19.75-37.326,35.813-58.583s15.484-45.555,15.464-45.555Q3086.85,412.264,3086.7,408.839Z" transform="translate(-2953.501 -331.66)" opacity="0.68" fill="url(#radial-gradient)"/>
    <path id="XMLID_315_" d="M2829.406,605.483c-.149.182-.287.347-.418.516a27.308,27.308,0,0,0-4.262,24.108c3.231,11.1,12.913,19.527,24.194,20.33a28.336,28.336,0,0,1-20.146-19.705,27.3,27.3,0,0,1,4.262-24.107c.132-.169.268-.334.419-.516a23.378,23.378,0,0,1,18.535-8.509c.458.007.91.028,1.364.058a24.99,24.99,0,0,0-5.411-.685A23.368,23.368,0,0,0,2829.406,605.483Z" transform="translate(-2786.526 -548.255)" fill="url(#radial-gradient-2)"/>
    <path id="XMLID_314_" d="M2659.212,516.918c-.482-1.3-1.089-2.714-1.808-4.217-3.837-8.029-10.85-18.683-19.2-30.029-6.187-8.407-13.1-17.2-20.005-25.576a87.563,87.563,0,0,1-12.3-19.965,93.52,93.52,0,0,1-5.062-14.414,67.156,67.156,0,0,1-2.142-11.741c-.287-2.232-.489-4.489-.591-6.773a67.933,67.933,0,0,1,14.169-45.367,60.968,60.968,0,0,1,46.939-23.383c-.128,0-.255-.007-.383-.008a61.019,61.019,0,0,0-49.328,23.391A67.924,67.924,0,0,0,2595.33,404.2c.1,2.284.3,4.541.591,6.773a66.917,66.917,0,0,0,2.144,11.741,92.8,92.8,0,0,0,5.062,14.414,87.606,87.606,0,0,0,12.3,19.965c6.9,8.38,13.818,17.168,20.005,25.576,8.347,11.348,15.36,22,19.2,30.029.719,1.5,1.326,2.912,1.808,4.217,4.988,13.466,5.218,19,10.942,19.095l.5.008a7,7,0,0,0,1.276-.089C2664.385,535.209,2663.893,529.555,2659.212,516.918Z" transform="translate(-2595.259 -329.17)" opacity="0.68" fill="url(#radial-gradient-3)"/>
  </g>
</svg>
