<svg xmlns="http://www.w3.org/2000/svg" width="12.189" height="12.189" viewBox="0 0 12.189 12.189">
  <g id="calendar_4_1_" data-name="calendar (4) (1)" transform="translate(-4.5 0.5)">
    <g id="Group_1947" data-name="Group 1947" transform="translate(6.4 -0.5)">
      <path id="Path_5660" data-name="Path 5660" d="M82.786-.5h1.024a.446.446,0,0,1,.274.286q.024,1.333,0,2.666a.429.429,0,0,1-.25.274,3.134,3.134,0,0,1-.524.036,3.527,3.527,0,0,1-.548-.036.4.4,0,0,1-.25-.3q-.024-1.309,0-2.619A.418.418,0,0,1,82.786-.5Z" transform="translate(-82.5 0.5)" fill-rule="evenodd" opacity="0.984"/>
    </g>
    <g id="Group_1948" data-name="Group 1948" transform="translate(13.17 -0.5)">
      <path id="Path_5661" data-name="Path 5661" d="M360.785-.5h1.024a.446.446,0,0,1,.274.286q.024,1.333,0,2.666a.429.429,0,0,1-.25.274,3.387,3.387,0,0,1-.536.036,3.387,3.387,0,0,1-.536-.036.429.429,0,0,1-.25-.274q-.024-1.333,0-2.666A.447.447,0,0,1,360.785-.5Z" transform="translate(-360.5 0.5)" fill-rule="evenodd" opacity="0.984"/>
    </g>
    <g id="Group_1949" data-name="Group 1949" transform="translate(4.5 0.833)">
      <path id="Path_5662" data-name="Path 5662" d="M15.791,66.356H5.4a1.163,1.163,0,0,1-.886-1.024q-.024-4.392,0-8.785a1.08,1.08,0,0,1,1.1-1.024q-.006.833.012,1.667a1.227,1.227,0,0,0,1.032.988q.546.024,1.093,0a1.229,1.229,0,0,0,1.056-.964q.018-.857.012-1.714h3.545q-.006.857.012,1.714a1.229,1.229,0,0,0,1.056.964q.546.024,1.093,0a1.227,1.227,0,0,0,1.032-.988q.018-.833.012-1.667a1.08,1.08,0,0,1,1.1,1.024q.024,4.392,0,8.785A1.163,1.163,0,0,1,15.791,66.356Zm-9.4-6.571q4.189-.006,8.377.012a.461.461,0,0,1,.425.321q.024,2.357,0,4.714a.446.446,0,0,1-.449.345q-4.164.024-8.329,0a.488.488,0,0,1-.449-.345q-.024-2.345,0-4.69A.522.522,0,0,1,6.394,59.785Z" transform="translate(-4.5 -55.5)" fill-rule="evenodd" opacity="0.985"/>
    </g>
    <g id="Group_1950" data-name="Group 1950" transform="translate(7.349 5.927)">
      <path id="Path_5663" data-name="Path 5663" d="M121.762,269.439q.512-.006,1.024.012a.27.27,0,0,1,.25.226q.024.548,0,1.1a.264.264,0,0,1-.2.2q-.559.024-1.119,0a.3.3,0,0,1-.2-.226q-.024-.524,0-1.047A.291.291,0,0,1,121.762,269.439Z" transform="translate(-121.5 -269.437)" fill-rule="evenodd" opacity="0.965"/>
    </g>
    <g id="Group_1951" data-name="Group 1951" transform="translate(9.833 5.925)">
      <path id="Path_5664" data-name="Path 5664" d="M223.762,269.36a9.53,9.53,0,0,1,1.119.036.381.381,0,0,1,.131.155q.024.6,0,1.19a.289.289,0,0,1-.179.155q-.571.024-1.143,0a.289.289,0,0,1-.179-.155q-.024-.6,0-1.19A.33.33,0,0,1,223.762,269.36Z" transform="translate(-223.5 -269.356)" fill-rule="evenodd" opacity="0.975"/>
    </g>
    <g id="Group_1952" data-name="Group 1952" transform="translate(12.293 5.927)">
      <path id="Path_5665" data-name="Path 5665" d="M324.762,269.439q.512-.006,1.024.012a.266.266,0,0,1,.25.25q.024.524,0,1.047a.313.313,0,0,1-.131.2,7.7,7.7,0,0,1-1.19.024.264.264,0,0,1-.2-.2q-.024-.547,0-1.1A.3.3,0,0,1,324.762,269.439Z" transform="translate(-324.5 -269.437)" fill-rule="evenodd" opacity="0.965"/>
    </g>
    <g id="Group_1953" data-name="Group 1953" transform="translate(7.349 8.355)">
      <path id="Path_5666" data-name="Path 5666" d="M121.69,371.439q.583-.006,1.167.012a.271.271,0,0,1,.179.2q.024.547,0,1.1a.256.256,0,0,1-.155.2q-.607.024-1.214,0a.332.332,0,0,1-.155-.226q-.024-.524,0-1.048A.31.31,0,0,1,121.69,371.439Z" transform="translate(-121.5 -371.437)" fill-rule="evenodd" opacity="0.974"/>
    </g>
    <g id="Group_1954" data-name="Group 1954" transform="translate(9.832 8.355)">
      <path id="Path_5667" data-name="Path 5667" d="M223.649,371.439q.571-.006,1.143.012a.335.335,0,0,1,.155.107,8.231,8.231,0,0,1,.024,1.238.426.426,0,0,1-.107.131,8.227,8.227,0,0,1-1.238.024.424.424,0,0,1-.131-.107,8.229,8.229,0,0,1-.024-1.238A.363.363,0,0,1,223.649,371.439Z" transform="translate(-223.458 -371.437)" fill-rule="evenodd" opacity="0.985"/>
    </g>
    <g id="Group_1955" data-name="Group 1955" transform="translate(12.293 8.355)">
      <path id="Path_5668" data-name="Path 5668" d="M324.69,371.439q.583-.006,1.167.012a.276.276,0,0,1,.179.226q.024.524,0,1.048a.332.332,0,0,1-.155.226q-.607.024-1.214,0a.256.256,0,0,1-.155-.2q-.024-.548,0-1.1A.307.307,0,0,1,324.69,371.439Z" transform="translate(-324.5 -371.437)" fill-rule="evenodd" opacity="0.974"/>
    </g>
  </g>
</svg>
