<svg xmlns="http://www.w3.org/2000/svg" width="12.255" height="15.931" viewBox="0 0 12.255 15.931">
  <path id="Icon_ionic-ios-lock" data-name="Icon ionic-ios-lock" d="M17.473,8.889h-.919V7.1A3.677,3.677,0,1,0,9.2,7.051V8.889H8.282A1.536,1.536,0,0,0,6.75,10.421v7.353a1.536,1.536,0,0,0,1.532,1.532h9.191A1.536,1.536,0,0,0,19,17.774V10.421A1.536,1.536,0,0,0,17.473,8.889Zm-4.059,4.779V16.3a.549.549,0,0,1-.509.551.537.537,0,0,1-.563-.536v-2.65a1.225,1.225,0,1,1,1.072,0Zm2.068-4.779H10.273V7.051a2.6,2.6,0,0,1,5.208,0Z" transform="translate(-6.75 -3.374)"/>
</svg>
