<svg xmlns="http://www.w3.org/2000/svg" width="16.522" height="11.565" viewBox="0 0 16.522 11.565">
  <path id="Icon_awesome-users" data-name="Icon awesome-users" d="M2.478,7.207A1.652,1.652,0,1,0,.826,5.554,1.654,1.654,0,0,0,2.478,7.207Zm11.565,0a1.652,1.652,0,1,0-1.652-1.652A1.654,1.654,0,0,0,14.044,7.207Zm.826.826H13.217a1.647,1.647,0,0,0-1.164.48,3.776,3.776,0,0,1,1.939,2.824h1.7a.825.825,0,0,0,.826-.826V9.685A1.654,1.654,0,0,0,14.87,8.033Zm-6.609,0A2.891,2.891,0,1,0,5.37,5.141,2.89,2.89,0,0,0,8.261,8.033Zm1.983.826h-.214a3.992,3.992,0,0,1-3.537,0H6.278A2.975,2.975,0,0,0,3.3,11.833v.743a1.239,1.239,0,0,0,1.239,1.239h7.435a1.239,1.239,0,0,0,1.239-1.239v-.743A2.975,2.975,0,0,0,10.244,8.859ZM4.469,8.513A1.647,1.647,0,0,0,3.3,8.033H1.652A1.654,1.654,0,0,0,0,9.685v.826a.825.825,0,0,0,.826.826h1.7A3.786,3.786,0,0,1,4.469,8.513Z" transform="translate(0 -2.25)"/>
</svg>
