<svg xmlns="http://www.w3.org/2000/svg" width="9.963" height="12.952" viewBox="0 0 9.963 12.952">
  <path id="Icon_ionic-ios-lock" data-name="Icon ionic-ios-lock" d="M15.467,7.858H14.72V6.4a2.989,2.989,0,1,0-5.978-.04V7.858H8A1.249,1.249,0,0,0,6.75,9.1v5.978A1.249,1.249,0,0,0,8,16.326h7.472a1.249,1.249,0,0,0,1.245-1.245V9.1A1.249,1.249,0,0,0,15.467,7.858Zm-3.3,3.885v2.142a.446.446,0,0,1-.414.448A.436.436,0,0,1,11.3,13.9V11.743a1,1,0,1,1,.872,0Zm1.681-3.885H9.614V6.363a2.117,2.117,0,0,1,4.234,0Z" transform="translate(-6.75 -3.374)"/>
</svg>
