<svg xmlns="http://www.w3.org/2000/svg" width="23.696" height="23.696" viewBox="0 0 23.696 23.696">
  <g id="search_1_1_" data-name="search (1) (1)" transform="translate(0.5 0.5)">
    <g id="Group_1815" data-name="Group 1815" transform="translate(-0.5 -0.5)">
      <path id="Path_5612" data-name="Path 5612" d="M8.34-.5h1.851a9.8,9.8,0,0,1,8.076,13.606A9.8,9.8,0,0,1,1.236,14.865,10.04,10.04,0,0,1-.5,10.1V8.432A9.911,9.911,0,0,1,5.192.356,10.844,10.844,0,0,1,8.34-.5Zm.833,1.851a8,8,0,0,1,7.243,4.582A7.884,7.884,0,0,1,2.439,13.2,7.9,7.9,0,0,1,9.173,1.351Z" transform="translate(0.5 0.5)" fill="#078f10" fill-rule="evenodd" opacity="0.971"/>
    </g>
    <g id="Group_1816" data-name="Group 1816" transform="translate(17.183 17.184)">
      <path id="Path_5613" data-name="Path 5613" d="M387.6,386.412v.555a1.118,1.118,0,0,1-.648.648h-.6a1.208,1.208,0,0,0-.278-.162l-4.281-4.281a.968.968,0,0,1,1.458-1.273l4.05,4.05A1.46,1.46,0,0,1,387.6,386.412Z" transform="translate(-381.589 -381.604)" fill="#078f10" fill-rule="evenodd" opacity="0.955"/>
    </g>
  </g>
</svg>
