<svg xmlns="http://www.w3.org/2000/svg" width="12.104" height="12.104" viewBox="0 0 12.104 12.104">
  <g id="search_1_1_" data-name="search (1) (1)" transform="translate(0.5 0.5)">
    <g id="Group_1815" data-name="Group 1815" transform="translate(-0.5 -0.5)">
      <path id="Path_5612" data-name="Path 5612" d="M4.015-.5h.946A5,5,0,0,1,9.086,6.45a5.005,5.005,0,0,1-8.7.9A5.128,5.128,0,0,1-.5,4.914V4.063A5.063,5.063,0,0,1,2.408-.063,5.539,5.539,0,0,1,4.015-.5Zm.426.946a4.087,4.087,0,0,1,3.7,2.34A4.027,4.027,0,0,1,1,6.5,4.037,4.037,0,0,1,4.441.446Z" transform="translate(0.5 0.5)" fill-rule="evenodd" opacity="0.971"/>
    </g>
    <g id="Group_1816" data-name="Group 1816" transform="translate(8.533 8.533)">
      <path id="Path_5613" data-name="Path 5613" d="M384.66,384.06v.284a.571.571,0,0,1-.331.331h-.307a.618.618,0,0,0-.142-.083l-2.187-2.187a.494.494,0,0,1,.745-.65l2.069,2.069A.744.744,0,0,1,384.66,384.06Z" transform="translate(-381.589 -381.604)" fill-rule="evenodd" opacity="0.955"/>
    </g>
  </g>
</svg>
