<svg xmlns="http://www.w3.org/2000/svg" width="12.043" height="15.892" viewBox="0 0 12.043 15.892">
  <g id="bookmark_1_" data-name="bookmark (1)" transform="translate(-61.5 0.5)">
    <path id="Path_5672" data-name="Path 5672" d="M62.648-.5h9.808a1.574,1.574,0,0,1,.978.838A1.629,1.629,0,0,1,73.527.8q.031,6.875,0,13.75a.86.86,0,0,1-.512.838h-.435a1.986,1.986,0,0,1-.4-.233q-2.062-1.736-4.1-3.507a.791.791,0,0,0-1.055,0q-2.042,1.727-4.066,3.476a2.614,2.614,0,0,1-.466.264h-.435a.883.883,0,0,1-.543-.838q-.031-6.875,0-13.75A1.425,1.425,0,0,1,62.648-.5Z" transform="translate(0)" fill-rule="evenodd" opacity="0.994"/>
  </g>
</svg>
