<svg xmlns="http://www.w3.org/2000/svg" width="17.145" height="17.146" viewBox="0 0 17.145 17.146">
  <g id="translate" transform="translate(0.5 0.5)">
    <g id="Group_1874" data-name="Group 1874" transform="translate(-0.5 -0.5)">
      <path id="Path_5631" data-name="Path 5631" d="M1.007-.5H8.173a1.966,1.966,0,0,1,1.49,1.574L11.254,2.2a.553.553,0,0,1,.067.938L9.7,4.289q-.025.6-.017,1.206-.7-.008-1.406.017A2.958,2.958,0,0,0,6.4,6.264a.36.36,0,0,0-.167-.218,2.741,2.741,0,0,1-1.239-.368,2.571,2.571,0,0,0,.7-1.557,1.261,1.261,0,0,0,.6-.084.287.287,0,0,0-.033-.4,10.2,10.2,0,0,0-1.406-.05,4.023,4.023,0,0,0-.05-.837q-.259-.279-.469.033-.025.4-.017.8a10.677,10.677,0,0,0-1.44.05.287.287,0,0,0-.033.4,1.261,1.261,0,0,0,.6.084,2.572,2.572,0,0,0,.7,1.557,2.121,2.121,0,0,1-1.139.335A.268.268,0,0,0,2.8,6.4l.117.117a2.618,2.618,0,0,0,1.658-.452,3.293,3.293,0,0,0,1.557.5,2.862,2.862,0,0,0-.62,1.674q-.025.72-.017,1.44-2.11.008-4.219-.017A1.887,1.887,0,0,1-.5,8.173V1.007A1.936,1.936,0,0,1,1.007-.5Z" transform="translate(0.5 0.5)" fill="#007f00" fill-rule="evenodd" opacity="0.99"/>
    </g>
    <g id="Group_1875" data-name="Group 1875" transform="translate(3.987 4.121)">
      <path id="Path_5632" data-name="Path 5632" d="M133.5,137.5h1.172a2.02,2.02,0,0,1-.586,1.239A2.02,2.02,0,0,1,133.5,137.5Z" transform="translate(-133.5 -137.5)" fill="#007f00" fill-rule="evenodd" opacity="0.93"/>
    </g>
    <g id="Group_1876" data-name="Group 1876" transform="translate(4.596 6.465)">
      <path id="Path_5633" data-name="Path 5633" d="M163.728,209.007v7.166a1.936,1.936,0,0,1-1.507,1.507h-7.166a1.966,1.966,0,0,1-1.49-1.574l-1.591-1.122a.553.553,0,0,1-.067-.938l1.624-1.155q.017-1.808.033-3.617a1.868,1.868,0,0,1,1.758-1.758q3.315-.034,6.63,0A1.886,1.886,0,0,1,163.728,209.007Zm-5.258,1.641a1.367,1.367,0,0,1,.469.05.6.6,0,0,1,.151.184q.522,1.71,1.055,3.416a.464.464,0,0,1-.6.218,3.551,3.551,0,0,1-.234-.787H158a4.606,4.606,0,0,1-.234.787.448.448,0,0,1-.6-.218q.532-1.706,1.055-3.416A.45.45,0,0,1,158.471,210.648Z" transform="translate(-151.679 -207.5)" fill="#007f00" fill-rule="evenodd" opacity="0.991"/>
    </g>
    <g id="Group_1877" data-name="Group 1877" transform="translate(11.087 10.484)">
      <path id="Path_5634" data-name="Path 5634" d="M345.969,327.5q.273.807.5,1.641a7.068,7.068,0,0,1-.971.033Q345.719,328.332,345.969,327.5Z" transform="translate(-345.5 -327.5)" fill="#007f00" fill-rule="evenodd" opacity="0.909"/>
    </g>
  </g>
</svg>
