<svg xmlns="http://www.w3.org/2000/svg" width="19.205" height="16.958" viewBox="0 0 19.205 16.958">
  <g id="briefcase" transform="translate(0.5 -29.438)">
    <g id="Group_1870" data-name="Group 1870" transform="translate(0.619 29.437)">
      <path id="Path_5628" data-name="Path 5628" d="M35.746,29.44q2.063-.009,4.126.019a2.282,2.282,0,0,1,1.894,2.007q.028.675.019,1.35h4.5a5.132,5.132,0,0,1-1.332,3.976,9.055,9.055,0,0,1-4.708,2.588q-.035-.621-.094-1.238a.624.624,0,0,0-.356-.319q-2.048-.055-4.089.038a.665.665,0,0,0-.244.281q-.059.617-.094,1.238a9.649,9.649,0,0,1-4.126-2.007,5.643,5.643,0,0,1-1.819-2.945,8.25,8.25,0,0,1-.094-1.613h4.5a13.316,13.316,0,0,1,.056-1.613A2.356,2.356,0,0,1,35.746,29.44Zm.113,1.163q2.01-.027,4.014.056a1.163,1.163,0,0,1,.731.881q.028.637.019,1.275H35q-.009-.638.019-1.275A1.2,1.2,0,0,1,35.858,30.6Z" transform="translate(-29.325 -29.437)" fill="#007f00" fill-rule="evenodd" opacity="0.987"/>
    </g>
    <g id="Group_1871" data-name="Group 1871" transform="translate(-0.5 33.378)">
      <path id="Path_5629" data-name="Path 5629" d="M-.5,134.5a6.507,6.507,0,0,0,1.988,4.482A10.172,10.172,0,0,0,6.7,141.608a2.516,2.516,0,0,0,2.4,2.082,2.516,2.516,0,0,0,2.4-2.082,10.172,10.172,0,0,0,5.214-2.626,6.507,6.507,0,0,0,1.988-4.482v10.69a2.815,2.815,0,0,1-2.138,2.269q-3.73.065-7.465.056-3.734.009-7.465-.056A2.815,2.815,0,0,1-.5,145.19Z" transform="translate(0.5 -134.5)" fill="#007f00" fill-rule="evenodd" opacity="0.993"/>
    </g>
    <g id="Group_1872" data-name="Group 1872" transform="translate(7.787 38.892)">
      <path id="Path_5630" data-name="Path 5630" d="M220.44,281.5h2.626q.009.657-.019,1.313a1.294,1.294,0,0,1-2.588,0Q220.43,282.157,220.44,281.5Z" transform="translate(-220.437 -281.5)" fill="#007f00" fill-rule="evenodd" opacity="0.966"/>
    </g>
  </g>
</svg>
