<svg xmlns="http://www.w3.org/2000/svg" width="13.24" height="13.24" viewBox="0 0 13.24 13.24">
  <g id="link" transform="translate(-5.635 -5.635)">
    <path id="Path_5606" data-name="Path 5606" d="M19.286,12.256l1.137,1.136,2.271-2.271A3.213,3.213,0,0,0,18.15,6.576L15.879,8.848l1.136,1.137,2.271-2.272a1.607,1.607,0,0,1,2.272,2.272Z" transform="translate(-4.759 0)" fill="#007f00"/>
    <path id="Path_5607" data-name="Path 5607" d="M12.256,19.287l1.136,1.136L11.12,22.694A3.213,3.213,0,0,1,6.576,18.15l2.271-2.271,1.137,1.136L7.712,19.287a1.606,1.606,0,1,0,2.272,2.271l2.271-2.272Z" transform="translate(0 -4.759)" fill="#007f00"/>
    <path id="Path_5608" data-name="Path 5608" d="M18.1,14.688a.8.8,0,1,0-1.137-1.137L13.554,16.96A.8.8,0,1,0,14.69,18.1L18.1,14.688Z" transform="translate(-3.569 -3.568)" fill="#007f00"/>
  </g>
</svg>
