<svg xmlns="http://www.w3.org/2000/svg" width="17.156" height="18.109" viewBox="0 0 17.156 18.109">
  <path id="Icon_material-location-city" data-name="Icon material-location-city" d="M15.937,11.578V5.859L13.078,3,10.219,5.859V7.765H4.5V21.109H21.656V11.578ZM8.312,19.2H6.406V17.3H8.312Zm0-3.812H6.406V13.484H8.312Zm0-3.812H6.406V9.672H8.312ZM14.031,19.2H12.125V17.3h1.906Zm0-3.812H12.125V13.484h1.906Zm0-3.812H12.125V9.672h1.906Zm0-3.812H12.125V5.859h1.906ZM19.75,19.2H17.843V17.3H19.75Zm0-3.812H17.843V13.484H19.75Z" transform="translate(-4.5 -3)" fill="#007f00"/>
</svg>
