<svg xmlns="http://www.w3.org/2000/svg" width="12.279" height="13.644" viewBox="0 0 12.279 13.644">
  <path id="Icon_material-date-range" data-name="Icon material-date-range" d="M8.593,9.14H7.229V10.5H8.593Zm2.729,0H9.957V10.5h1.364Zm2.729,0H12.686V10.5h1.364Zm1.364-4.775h-.682V3H13.368V4.364H7.911V3H6.547V4.364H5.864A1.358,1.358,0,0,0,4.507,5.729L4.5,15.279a1.364,1.364,0,0,0,1.364,1.364h9.551a1.368,1.368,0,0,0,1.364-1.364V5.729A1.368,1.368,0,0,0,15.415,4.364Zm0,10.915H5.864v-7.5h9.551Z" transform="translate(-4.5 -3)"/>
</svg>
