<svg xmlns="http://www.w3.org/2000/svg" width="12.546" height="12.546" viewBox="0 0 12.546 12.546">
  <g id="phone-call_6_1_" data-name="phone-call (6) (1)" transform="translate(0.5 0.5)">
    <path id="Path_5650" data-name="Path 5650" d="M1.705-.5H2.22a1.8,1.8,0,0,1,.613.306Q3.821.77,4.756,1.779a1.217,1.217,0,0,1-.233,1.556,5.3,5.3,0,0,1-.637.319,1.161,1.161,0,0,0-.4,1.507A5.627,5.627,0,0,0,6.361,8.04a1.229,1.229,0,0,0,1.556-.453A1.214,1.214,0,0,1,9.35,6.618a1.255,1.255,0,0,1,.588.294q.963.951,1.9,1.924a1.575,1.575,0,0,1,.208.564v.27a1.458,1.458,0,0,1-.306.711l-1.311,1.311a1.982,1.982,0,0,1-.858.355H8.836A7.264,7.264,0,0,1,6.8,11.372a15.771,15.771,0,0,1-4.153-3.2,15.526,15.526,0,0,1-2.5-3.5A7.006,7.006,0,0,1-.5,2.563V2.048a1.952,1.952,0,0,1,.355-.956L1.191-.243A1.9,1.9,0,0,1,1.705-.5Z" fill-rule="evenodd" opacity="0.989"/>
  </g>
</svg>
