<svg xmlns="http://www.w3.org/2000/svg" width="16.149" height="16.824" viewBox="0 0 16.149 16.824">
  <g id="market-store_1_" data-name="market-store (1)" transform="translate(-10.026 0.5)">
    <g id="Group_1878" data-name="Group 1878" transform="translate(10.026 -0.5)">
      <path id="Path_5635" data-name="Path 5635" d="M12.145-.5h11.9a1.519,1.519,0,0,1,.969.789q.613,1.954,1.167,3.927a1.232,1.232,0,0,1-.657,1.117,1.193,1.193,0,0,1-1.676-.772,1.207,1.207,0,0,1-1.38.871,1.274,1.274,0,0,1-.92-.871,1.173,1.173,0,0,1-2.284-.033,1.2,1.2,0,0,1-1.364.9,1.273,1.273,0,0,1-.969-.9,1.144,1.144,0,0,1-1.331.9,1.245,1.245,0,0,1-.953-.871,1.192,1.192,0,0,1-1.347.871,1.245,1.245,0,0,1-.953-.871,1.179,1.179,0,1,1-2.251-.69q.522-1.8,1.084-3.582A1.518,1.518,0,0,1,12.145-.5Z" transform="translate(-10.026 0.5)" fill-rule="evenodd" opacity="0.992"/>
    </g>
    <g id="Group_1879" data-name="Group 1879" transform="translate(10.029 5.908)">
      <path id="Path_5636" data-name="Path 5636" d="M25.617,204.916H10.7a.848.848,0,0,1-.476-1.282,1.067,1.067,0,0,1,1-.361v-8.412a1.9,1.9,0,0,0,1.183-.361,2.087,2.087,0,0,0,1.413.361q-.024,3.239.049,6.473a.694.694,0,0,0,.509.411q1.2.025,2.4.016.008-.838-.016-1.676l-.789,1.314a.583.583,0,0,1-.805.115.631.631,0,0,1-.148-.608q.858-1.5,1.791-2.957a.57.57,0,0,1,.23-.115q1.117-.033,2.234,0a.57.57,0,0,1,.23.115q.933,1.454,1.791,2.957.1.853-.739.674a.84.84,0,0,1-.214-.181l-.789-1.314q-.025.838-.016,1.676,1.2.008,2.4-.016a.694.694,0,0,0,.509-.411q.073-3.234.049-6.473a2.087,2.087,0,0,0,1.413-.361,1.9,1.9,0,0,0,1.183.361v8.412a.907.907,0,0,1,1.15.838A.852.852,0,0,1,25.617,204.916Z" transform="translate(-10.094 -194.5)" fill-rule="evenodd" opacity="0.988"/>
    </g>
    <g id="Group_1880" data-name="Group 1880" transform="translate(17.003 6.334)">
      <path id="Path_5637" data-name="Path 5637" d="M223.246,207.467a1.13,1.13,0,0,1,1.265.986,1.334,1.334,0,0,1-.608,1.4,1.091,1.091,0,0,1-1.528-.871A1.271,1.271,0,0,1,223.246,207.467Z" transform="translate(-222.355 -207.466)" fill-rule="evenodd" opacity="0.966"/>
    </g>
  </g>
</svg>
