<svg xmlns="http://www.w3.org/2000/svg" width="13.982" height="9.438" viewBox="0 0 13.982 9.438">
  <path id="Icon_zocial-email" data-name="Icon zocial-email" d="M.072,12.67V4.9q0-.013.04-.256l4.571,3.91L.126,12.94a1.143,1.143,0,0,1-.054-.27ZM.679,4.108a.581.581,0,0,1,.229-.04h12.31a.763.763,0,0,1,.243.04L8.876,8.032l-.607.485L7.07,9.5l-1.2-.984-.607-.485Zm.013,9.357,4.6-4.409L7.07,10.5,8.85,9.057l4.6,4.409a.647.647,0,0,1-.229.04H.908a.611.611,0,0,1-.216-.04ZM9.456,8.558l4.557-3.91a.8.8,0,0,1,.04.256V12.67a1.033,1.033,0,0,1-.04.27Z" transform="translate(-0.072 -4.068)"/>
</svg>
